{"glyphs":{"0":{"ha":560,"x_min":62,"x_max":498,"o":"m 349 834 q 498 620 498 736 l 498 313 q 414 133 498 197 l 210 -20 q 114 58 141 24 q 62 193 62 121 l 62 500 q 146 680 62 616 l 349 834 m 382 620 q 351 691 382 659 l 215 587 q 178 500 178 559 l 178 193 q 210 123 178 154 l 345 226 q 382 313 382 255 l 382 620 z "},"1":{"ha":412,"x_min":4,"x_max":321,"o":"m 159 29 q 205 304 205 136 l 205 657 l 175 633 q 121 528 132 598 l 4 528 q 66 689 16 633 q 101 722 83 707 l 252 834 l 321 798 l 321 304 q 303 98 321 169 q 264 -20 285 28 l 159 29 z "},"2":{"ha":677,"x_min":50,"x_max":630,"o":"m 221 699 q 276 603 276 667 q 243 523 276 556 q 163 490 210 490 q 83 523 115 490 q 50 605 50 557 q 71 694 50 652 q 127 768 90 736 q 340 833 208 834 q 528 779 454 834 q 610 608 610 717 q 490 405 610 492 q 418 357 454 380 l 344 311 q 227 223 259 260 q 184 153 195 186 q 300 140 237 153 q 477 115 421 115 q 503 125 492 115 q 513 150 513 135 q 503 176 513 165 q 477 187 492 187 l 477 302 q 585 258 540 302 q 630 151 630 214 q 585 43 630 87 q 477 0 541 0 q 378 13 441 0 q 185 37 261 37 l 200 0 l 75 0 q 56 108 56 61 q 75 198 56 155 q 124 276 94 241 q 195 339 155 311 q 275 392 235 368 l 355 441 q 475 543 441 492 q 494 606 494 571 q 479 663 494 642 q 441 696 464 684 q 349 718 399 718 q 221 699 254 718 z "},"3":{"ha":618,"x_min":6,"x_max":572,"o":"m 182 695 q 231 603 231 660 q 197 523 231 556 q 117 490 164 490 q 38 523 71 490 q 6 607 5 557 q 29 700 7 657 q 90 772 52 742 q 285 833 167 833 q 499 751 419 833 q 572 574 572 677 q 470 361 572 443 q 572 172 572 310 q 279 -158 572 -16 q 90 -239 191 -201 l 47 -132 q 339 7 244 -56 q 457 172 457 87 q 370 274 457 256 q 310 281 342 279 q 270 269 294 275 l 213 253 l 184 364 q 438 505 388 420 q 457 568 457 536 q 446 627 457 601 q 413 673 435 652 q 285 718 364 718 q 182 695 222 718 z "},"4":{"ha":611,"x_min":11,"x_max":602,"o":"m 11 206 q 42 333 11 265 l 300 846 q 465 701 426 793 q 479 629 479 669 l 479 249 l 602 249 l 602 134 l 477 134 q 426 -77 469 3 q 230 -227 366 -186 l 201 -115 q 353 56 328 -77 q 361 134 359 94 l 11 134 l 11 206 m 349 684 q 134 249 139 267 l 363 249 l 363 629 q 349 684 363 663 z "},"5":{"ha":580,"x_min":-24,"x_max":554,"o":"m 262 492 q 532 362 470 492 q 554 242 554 315 q 515 100 554 169 q 404 -30 475 31 q 20 -239 268 -146 l -24 -130 q 308 39 183 -60 q 438 248 438 142 q 385 347 438 313 q 262 376 338 377 l 29 376 l 89 834 l 493 834 l 493 719 l 192 719 l 160 492 l 262 492 z "},"6":{"ha":547,"x_min":69,"x_max":502,"o":"m 216 0 q 69 214 69 95 l 69 673 q 149 884 69 780 q 368 1063 229 989 l 425 962 q 201 748 254 870 q 184 673 184 709 l 184 635 l 353 761 q 446 684 420 715 q 502 547 502 616 l 502 329 q 418 149 502 211 l 216 0 m 222 518 q 184 439 184 490 l 184 214 q 216 143 184 175 l 349 243 q 386 329 386 271 l 386 547 q 353 618 386 585 l 222 518 z "},"7":{"ha":566,"x_min":-19,"x_max":553,"o":"m -19 711 q 69 794 28 772 q 216 834 141 834 l 553 834 q 466 448 556 616 q 412 354 439 399 l 359 262 q 284 73 302 161 q 267 -69 267 -14 q 269 -163 267 -123 l 273 -239 l 157 -239 q 156 -213 157 -229 l 153 -179 q 151 -88 151 -138 q 163 32 151 -38 q 195 161 175 102 q 239 270 214 220 q 290 366 264 321 l 342 453 q 416 609 399 549 q 434 719 433 669 l 216 719 q 138 700 170 719 q 77 646 106 680 l -19 711 z "},"8":{"ha":596,"x_min":61,"x_max":537,"o":"m 475 621 q 537 472 537 558 l 537 344 q 454 164 537 228 l 210 -20 q 113 58 141 22 q 61 194 61 123 l 61 322 q 135 494 61 432 q 80 636 80 556 l 80 728 q 163 908 80 843 l 367 1062 q 458 985 431 1019 q 515 848 515 918 l 515 755 q 475 621 515 675 m 421 472 q 391 543 421 512 l 213 408 q 177 322 177 382 l 177 194 q 208 123 177 154 l 385 257 q 421 344 421 284 l 421 472 m 399 848 q 368 918 399 888 l 232 815 q 195 728 195 787 l 195 636 q 227 566 195 597 l 362 669 q 399 755 399 697 l 399 848 z "},"9":{"ha":551,"x_min":59,"x_max":492,"o":"m 208 73 q 59 287 59 167 l 59 505 q 142 685 59 623 l 345 834 q 435 758 408 791 q 492 621 492 691 l 492 151 q 412 -61 492 43 q 193 -239 332 -166 l 136 -138 q 312 0 245 -80 q 376 151 376 78 l 376 199 l 208 73 m 339 316 q 376 395 376 345 l 376 621 q 345 691 376 659 l 212 591 q 175 505 175 564 l 175 287 q 208 216 175 249 l 339 316 z "}," ":{"ha":339,"x_min":0,"x_max":0,"o":""},"!":{"ha":319,"x_min":85,"x_max":221,"o":"m 221 1044 l 221 283 l 105 283 l 105 1044 l 221 1044 m 201 -46 l 85 -39 l 105 228 l 221 220 l 201 -46 z "},"\"":{"ha":460,"x_min":71,"x_max":389,"o":"m 273 1063 l 389 1063 l 389 649 l 273 649 l 273 1063 m 71 1063 l 186 1063 l 186 649 l 71 649 l 71 1063 z "},"#":{"ha":749,"x_min":47,"x_max":701,"o":"m 559 602 l 536 424 l 665 424 l 650 308 l 523 308 l 494 83 l 378 83 l 407 308 l 292 308 l 264 83 l 149 83 l 177 308 l 47 308 l 62 424 l 191 424 l 213 602 l 84 602 l 98 718 l 227 718 l 256 943 l 372 943 l 343 718 l 458 718 l 486 943 l 602 943 l 573 718 l 701 718 l 686 602 l 559 602 m 307 424 l 421 424 l 443 602 l 328 602 l 307 424 z "},"$":{"ha":667,"x_min":38,"x_max":603,"o":"m 208 307 q 196 273 196 290 q 202 240 196 256 q 220 210 209 224 q 245 184 231 197 l 314 129 l 314 395 l 245 343 l 38 598 l 267 802 l 314 745 l 314 834 l 190 834 q 234 924 201 885 q 314 983 267 963 l 314 1096 l 422 1096 l 422 997 q 551 927 498 986 q 603 790 603 869 q 515 620 604 682 q 456 591 488 601 q 571 403 543 509 q 581 330 581 368 q 571 254 581 293 q 543 178 562 214 q 422 50 502 100 l 422 -91 l 314 -91 l 314 1 l 191 90 q 81 271 81 169 q 134 392 81 331 l 208 307 m 376 582 q 252 637 304 589 l 195 591 l 264 499 l 376 582 m 422 703 q 469 735 451 711 q 487 790 487 759 q 469 845 487 821 q 422 878 451 869 l 422 703 m 422 203 q 465 333 465 265 q 422 450 465 394 l 422 203 z "},"%":{"ha":1086,"x_min":61,"x_max":1039,"o":"m 848 862 l 280 -33 l 186 31 l 756 930 l 848 862 m 890 657 q 1039 443 1039 559 l 1039 304 q 956 141 1039 204 l 735 -23 l 655 16 l 655 361 q 739 541 655 477 l 890 657 m 807 448 q 771 361 771 420 l 771 146 l 887 231 q 924 304 924 257 l 924 443 q 891 513 924 481 l 807 448 m 296 947 q 444 733 444 850 l 444 594 q 431 517 444 544 q 361 432 408 468 l 140 267 l 61 307 l 61 652 q 144 831 61 768 l 296 947 m 213 739 q 176 652 176 709 l 176 437 l 293 522 q 330 594 330 548 l 330 733 q 297 804 330 771 l 213 739 z "},"&":{"ha":701,"x_min":54,"x_max":655,"o":"m 95 745 q 178 924 95 862 l 178 924 l 359 1063 q 452 986 425 1019 q 508 849 508 918 l 508 755 q 434 583 508 640 l 309 487 l 431 322 q 538 489 533 408 q 540 543 540 514 l 540 618 l 655 618 l 655 559 q 652 474 655 514 q 635 395 650 434 q 501 228 603 311 l 521 202 q 574 142 555 156 q 654 116 608 116 l 654 0 q 475 79 548 0 q 428 134 452 104 l 411 155 l 203 -10 q 54 205 54 83 l 54 322 q 147 509 54 437 q 95 663 95 591 l 95 745 m 392 849 q 361 920 392 889 l 248 831 q 211 745 211 802 l 211 663 q 222 618 212 638 l 242 583 l 356 669 q 392 755 392 698 l 392 849 m 216 417 q 170 322 170 379 l 170 205 q 201 134 170 166 l 342 248 l 216 417 z "},"'":{"ha":257,"x_min":71,"x_max":186,"o":"m 71 1063 l 186 1063 l 186 648 l 71 648 l 71 1063 z "},"(":{"ha":383,"x_min":41,"x_max":395,"o":"m 315 -197 q 111 98 184 -75 q 41 438 41 263 q 195 925 42 706 q 317 1062 247 999 l 395 975 q 172 583 220 817 q 157 437 157 510 q 172 289 157 363 q 217 142 187 214 q 393 -113 279 -6 l 315 -197 z "},")":{"ha":383,"x_min":-12,"x_max":342,"o":"m -10 -112 q 210 289 161 50 q 225 437 225 363 q 211 583 226 510 q 167 724 197 655 q -12 975 104 871 l 66 1062 q 325 606 270 879 q 342 437 342 522 q 324 266 342 352 q 273 98 307 179 q 69 -197 200 -75 l -10 -112 z "},"*":{"ha":570,"x_min":52,"x_max":517,"o":"m 102 671 q 52 756 52 699 q 80 825 52 796 q 149 854 109 853 q 188 846 165 854 q 221 902 195 880 q 274 924 247 924 q 316 918 300 924 q 345 901 332 912 q 378 844 372 879 q 419 854 399 854 q 458 846 440 854 q 488 825 475 838 q 517 756 517 796 q 467 671 517 699 q 517 586 517 642 q 488 517 517 545 q 429 489 460 488 q 378 498 398 489 q 351 448 372 465 q 282 420 317 420 q 221 442 248 420 q 188 496 195 464 q 149 489 169 489 q 111 496 129 489 q 80 517 94 503 q 52 594 52 545 q 102 671 52 643 m 258 693 q 114 736 132 704 q 109 759 109 746 q 120 784 109 772 q 145 795 132 795 q 169 789 157 795 l 185 819 q 150 829 168 829 q 119 823 132 829 q 96 806 106 817 q 75 760 75 784 q 174 672 75 687 q 258 661 213 666 q 150 552 189 552 q 122 564 133 552 q 111 595 111 576 q 130 625 111 614 l 113 654 q 77 591 77 632 q 93 545 77 561 q 150 518 120 518 q 195 534 172 518 q 283 644 233 559 q 324 516 324 559 q 313 488 324 500 q 285 477 301 477 q 257 488 269 477 q 245 516 245 500 l 212 516 q 227 470 212 486 q 277 443 254 443 q 313 449 300 443 q 336 464 327 454 q 358 521 358 486 q 311 656 358 556 q 457 613 441 644 q 462 590 463 604 q 450 566 462 577 q 426 555 439 555 q 402 561 413 555 l 386 531 q 420 521 402 521 q 452 527 438 521 q 475 543 465 533 q 496 589 496 566 q 465 654 496 637 q 310 688 422 678 q 421 798 376 798 q 449 786 438 798 q 460 755 460 774 q 442 725 460 736 l 460 696 q 494 759 494 719 q 478 804 494 789 q 426 831 450 831 q 380 819 402 831 q 288 706 348 800 q 245 834 245 793 q 257 863 245 851 q 285 874 269 874 q 313 863 301 874 q 324 834 324 851 l 358 834 q 342 881 358 865 q 292 908 315 908 q 256 902 269 908 q 233 887 243 897 q 212 824 212 865 q 258 693 212 783 z "},"+":{"ha":697,"x_min":44,"x_max":653,"o":"m 290 528 l 290 774 l 406 774 l 406 528 l 653 528 l 653 413 l 406 413 l 406 168 l 290 168 l 290 413 l 44 413 l 44 528 l 290 528 z "},",":{"ha":268,"x_min":54,"x_max":225,"o":"m 54 -135 q 121 16 121 -29 q 108 50 121 35 q 66 64 95 64 l 66 175 q 216 87 185 175 q 225 21 225 60 q 145 -186 225 -61 l 54 -135 z "},"-":{"ha":527,"x_min":73,"x_max":455,"o":"m 73 445 l 455 541 l 455 422 l 73 326 l 73 445 z "},".":{"ha":260,"x_min":60,"x_max":195,"o":"m 175 -46 l 60 -39 l 79 228 l 195 220 l 175 -46 z "},"/":{"ha":620,"x_min":26,"x_max":576,"o":"m 576 1019 l 138 -136 l 26 -107 l 469 1060 l 576 1019 z "},":":{"ha":336,"x_min":65,"x_max":267,"o":"m 173 -18 l 66 17 l 146 209 l 267 160 l 173 -18 m 172 435 l 65 471 l 146 663 l 266 614 l 172 435 z "},";":{"ha":333,"x_min":71,"x_max":274,"o":"m 181 435 l 74 471 l 154 663 l 274 614 l 181 435 m 71 -92 q 138 58 138 14 q 124 92 138 78 q 82 106 111 106 l 82 218 q 232 129 201 217 q 241 64 241 102 q 161 -144 241 -18 l 71 -92 z "},"<":{"ha":576,"x_min":31,"x_max":538,"o":"m 439 -170 l 31 450 l 441 1057 l 538 993 l 169 449 l 536 -107 l 439 -170 z "},"=":{"ha":765,"x_min":78,"x_max":687,"o":"m 78 303 l 78 412 l 687 412 l 687 303 l 78 303 m 78 502 l 78 610 l 687 610 l 687 502 l 78 502 z "},">":{"ha":576,"x_min":38,"x_max":546,"o":"m 39 -108 q 243 201 39 -108 l 243 200 l 408 449 l 38 993 l 135 1057 l 546 450 l 136 -171 l 39 -108 z "},"?":{"ha":601,"x_min":43,"x_max":554,"o":"m 353 -46 l 237 -39 l 257 228 l 373 220 l 353 -46 m 159 844 q 225 783 159 783 l 225 668 q 58 766 100 669 q 43 842 43 799 q 62 925 43 886 q 114 996 80 965 q 298 1063 188 1063 q 483 993 410 1063 q 554 823 554 924 q 429 612 554 693 q 363 572 393 589 l 311 543 q 248 492 262 515 q 234 451 234 469 q 240 420 234 433 q 256 396 245 406 q 309 374 277 374 q 355 391 339 374 q 383 449 382 418 l 496 449 q 440 315 496 371 q 307 260 385 260 q 173 315 229 260 q 118 448 118 370 q 236 633 118 562 q 298 669 269 654 q 353 700 328 684 q 396 735 377 716 q 439 823 439 777 q 400 909 439 873 q 298 947 360 947 q 197 915 237 947 q 159 844 159 885 z "},"@":{"ha":1057,"x_min":47,"x_max":1009,"o":"m 698 79 q 538 48 614 48 q 400 65 462 48 q 286 114 339 83 q 189 189 233 145 q 113 286 144 233 q 47 529 47 399 q 113 772 47 659 q 400 993 212 940 q 528 1010 461 1010 q 770 944 658 1010 q 991 656 939 845 q 1009 536 1009 595 q 998 427 1009 476 q 966 332 987 377 q 852 174 926 243 q 720 218 762 192 q 653 271 679 245 q 605 335 628 298 l 468 233 q 319 332 359 252 q 304 398 304 360 l 304 534 q 404 745 304 671 l 595 890 q 508 897 563 897 q 386 868 452 897 q 270 789 320 840 q 162 530 163 682 q 270 271 162 378 q 528 163 377 163 q 656 186 595 163 l 698 79 m 816 302 q 895 530 895 402 q 838 727 895 636 q 688 860 783 814 l 688 484 q 770 320 689 364 q 816 302 793 308 m 420 398 q 441 359 420 372 l 573 458 l 573 731 l 478 657 q 420 534 420 612 l 420 398 z "},"A":{"ha":1054,"x_min":46,"x_max":1004,"o":"m 374 945 q 218 854 218 945 q 266 758 218 808 q 309 716 286 737 q 353 669 332 694 q 399 537 400 608 q 355 428 399 473 q 246 384 311 384 q 140 429 183 384 q 96 537 96 473 q 156 658 96 612 q 197 680 174 671 q 134 739 151 713 q 100 844 100 789 q 115 937 100 899 q 164 1004 132 976 q 374 1063 234 1063 q 680 909 601 1062 q 707 792 707 854 q 697 685 707 730 q 670 600 687 641 q 631 521 653 559 l 587 447 l 629 404 l 728 473 l 728 791 q 810 987 728 909 q 1004 1063 888 1063 l 1004 945 q 878 886 918 945 q 843 747 842 834 l 843 270 q 932 119 842 189 q 990 77 959 98 l 922 -20 q 793 88 827 44 q 728 267 728 173 l 728 336 l 621 258 l 517 352 q 227 52 385 186 q 133 -20 176 9 l 46 60 q 414 399 260 214 q 593 775 593 614 q 469 932 593 892 q 374 945 429 945 m 247 572 q 240 572 247 572 q 221 562 232 572 q 211 535 211 551 q 221 510 211 520 q 247 499 232 499 q 273 510 262 499 q 284 535 284 520 q 273 562 284 551 q 247 572 262 572 z "},"B":{"ha":1166,"x_min":54,"x_max":1127,"o":"m 348 201 q 357 149 357 178 q 346 92 357 119 q 313 44 334 64 q 205 0 269 0 q 98 44 142 0 q 54 144 54 88 q 75 232 54 200 q 133 283 96 264 q 326 317 199 317 q 473 483 419 378 q 526 699 526 585 q 475 865 526 791 q 348 945 420 944 q 263 919 292 945 q 235 859 235 894 q 249 802 235 825 q 282 758 262 779 q 326 716 302 737 q 369 669 349 694 q 416 537 416 608 q 372 428 416 473 q 263 384 328 384 q 157 429 200 384 q 113 537 113 473 q 173 658 113 612 q 214 680 191 671 q 151 739 168 713 q 117 844 117 789 q 132 938 117 899 q 175 1004 146 976 q 348 1063 236 1063 q 469 1029 414 1063 q 564 940 524 995 q 739 1063 616 1063 q 878 967 827 1063 q 902 919 892 940 l 918 883 q 962 831 943 831 q 988 850 979 831 q 1012 920 1001 878 l 1127 891 q 1015 721 1099 759 l 905 671 q 1067 349 1067 530 q 976 108 1067 207 q 710 0 877 0 q 492 87 577 0 l 448 133 q 348 201 394 187 m 784 615 l 617 538 q 484 334 582 434 q 422 279 454 303 q 490 238 450 269 l 553 189 q 708 118 644 118 q 815 138 771 118 q 888 190 859 157 q 949 349 949 255 q 890 514 949 435 q 784 615 848 570 m 727 945 q 698 933 712 945 q 674 901 684 921 q 659 854 665 881 q 650 799 653 829 q 644 682 644 751 l 845 774 q 819 817 829 794 l 783 892 q 727 945 758 945 m 204 190 q 197 190 204 190 q 179 179 189 190 q 168 153 168 168 q 179 127 168 138 q 204 117 189 117 q 231 127 220 117 q 241 153 241 138 q 231 179 241 168 q 204 190 220 190 m 264 572 q 257 572 264 572 q 238 562 249 572 q 228 535 228 551 q 238 510 228 520 q 264 499 249 499 q 290 510 279 499 q 301 535 301 520 q 290 562 301 551 q 264 572 279 572 z "},"C":{"ha":1062,"x_min":62,"x_max":1019,"o":"m 817 772 q 715 823 754 772 q 633 696 707 755 q 567 647 602 670 q 503 600 533 625 q 435 482 435 544 q 519 387 435 414 q 594 378 549 378 l 594 260 q 377 332 450 260 q 316 482 316 391 q 407 674 316 593 q 460 718 433 697 l 513 755 q 604 876 604 819 l 604 938 q 566 943 587 941 l 530 944 q 292 826 393 940 q 195 636 223 750 q 180 501 180 579 q 205 349 180 422 q 275 225 229 277 q 545 119 370 119 q 844 266 723 118 q 908 372 888 319 l 1018 328 q 867 121 972 214 q 545 0 730 0 q 174 152 301 0 q 62 514 62 288 q 205 916 62 762 q 530 1063 342 1063 q 681 1035 609 1063 q 725 1010 707 1025 q 815 890 755 890 q 903 1012 876 890 l 1019 989 q 879 783 982 821 q 817 772 848 772 z "},"D":{"ha":1169,"x_min":60,"x_max":1116,"o":"m 368 215 q 382 152 382 185 q 370 92 382 119 q 338 44 358 64 q 230 0 293 0 q 123 44 167 0 q 79 140 79 88 q 98 224 79 193 q 148 277 117 255 q 282 320 211 320 q 397 306 353 321 q 477 269 441 291 q 544 220 513 246 q 605 171 575 193 q 733 119 675 119 q 841 148 792 119 q 924 224 888 176 q 998 467 997 326 q 879 748 997 611 q 701 888 806 834 q 594 930 650 916 l 399 743 q 465 681 422 709 l 532 639 q 616 498 616 585 q 571 389 616 433 q 465 347 528 347 q 357 391 401 347 q 313 503 313 435 q 369 616 313 570 q 297 673 316 650 q 261 774 261 719 l 437 943 q 248 878 319 934 q 179 747 179 823 q 198 686 179 714 q 258 642 218 657 l 258 517 q 106 612 161 536 q 60 744 60 675 q 89 871 60 812 q 172 972 118 929 q 476 1063 288 1063 q 798 971 644 1063 q 1027 747 939 886 q 1116 467 1116 608 q 1009 141 1116 275 q 726 1 897 1 q 519 88 615 1 l 468 136 q 368 215 404 196 m 464 534 q 457 534 464 534 q 438 524 449 534 q 428 497 428 513 q 438 472 428 482 q 464 461 449 461 q 490 472 479 461 q 501 497 501 482 q 490 524 501 513 q 464 534 479 534 m 230 190 q 222 190 230 190 q 204 179 214 190 q 193 153 193 168 q 204 127 193 138 q 230 117 214 117 q 256 127 245 117 q 267 153 267 138 q 256 179 267 168 q 230 190 245 190 z "},"E":{"ha":1038,"x_min":66,"x_max":991,"o":"m 704 532 q 736 423 736 479 q 720 330 736 368 q 675 263 704 292 q 528 203 614 202 q 381 263 442 203 q 321 410 321 324 q 356 526 321 473 l 450 456 q 437 414 437 436 q 445 375 437 391 q 464 347 452 359 q 528 320 490 320 q 592 347 566 320 q 618 405 618 373 q 606 459 618 437 q 574 500 594 481 q 530 533 555 518 l 484 562 q 379 632 407 604 q 323 758 323 689 q 372 880 323 825 q 390 918 390 902 q 358 945 390 945 q 295 919 326 945 q 239 842 264 894 q 184 526 184 726 q 291 216 184 327 q 530 117 385 117 q 758 213 659 117 q 881 412 833 286 l 991 368 q 831 120 935 218 q 530 -1 705 -1 q 210 126 339 0 q 66 526 66 268 q 159 931 66 782 q 252 1030 200 998 q 357 1063 304 1063 q 477 1011 436 1063 l 546 1097 q 644 909 589 959 q 686 891 665 891 q 724 902 708 891 q 752 933 741 913 q 776 1042 776 975 l 894 1042 q 840 849 894 922 q 680 772 783 772 q 511 865 578 772 l 463 805 q 442 762 442 779 q 450 731 442 744 q 472 708 458 719 q 504 686 486 697 l 576 645 q 612 623 594 635 q 661 696 636 675 q 759 733 705 733 q 856 694 810 733 l 856 767 l 971 767 q 959 640 971 673 q 925 589 946 606 q 875 572 905 572 q 833 578 846 572 q 811 593 821 585 l 793 608 q 772 615 785 615 q 749 608 760 615 q 730 589 739 601 q 704 532 718 571 z "},"F":{"ha":1067,"x_min":48,"x_max":1029,"o":"m 199 132 q 260 269 199 202 q 153 366 180 288 q 144 427 144 390 q 168 499 144 463 q 230 554 191 536 q 99 647 149 578 q 48 802 47 716 q 124 986 48 910 q 309 1063 201 1063 q 529 964 408 1063 l 597 911 q 747 832 682 848 q 726 905 726 868 q 738 970 726 942 q 770 1019 750 998 q 878 1063 814 1063 q 985 1018 941 1063 q 1029 918 1029 974 q 1007 826 1029 863 q 947 764 984 789 q 772 713 873 712 l 758 713 q 745 714 751 713 q 621 562 655 652 q 610 510 610 533 q 616 470 610 487 q 749 601 673 601 q 806 587 778 601 q 848 565 833 573 q 873 553 862 557 l 808 625 l 888 711 l 932 670 q 981 604 972 631 q 991 552 991 577 q 982 508 991 528 q 958 474 972 488 q 893 446 927 446 q 841 452 859 446 q 810 465 823 458 l 785 477 q 763 483 774 483 q 739 474 751 483 q 717 449 727 465 q 688 361 693 412 l 736 307 q 795 214 783 253 q 807 127 807 174 q 787 27 807 80 q 727 -64 766 -25 q 498 -149 644 -149 q 289 -75 375 -149 q 199 132 199 3 m 502 504 q 626 753 502 650 q 597 770 611 761 q 568 789 583 780 q 509 635 564 701 q 370 549 454 569 q 426 495 405 529 q 448 418 448 460 l 448 411 q 378 248 448 328 q 328 175 340 203 q 316 118 316 148 q 331 60 316 87 q 370 11 346 31 q 498 -31 421 -31 q 640 19 589 -31 q 690 140 689 66 q 641 244 690 189 q 596 293 620 268 q 551 348 572 317 q 502 504 502 419 m 167 802 q 209 702 167 744 q 309 661 250 661 q 409 702 367 661 q 450 802 450 744 q 409 902 450 861 q 309 944 367 944 q 209 902 250 944 q 167 802 167 861 m 295 453 q 288 453 295 453 q 270 442 280 453 q 259 416 259 431 q 270 390 259 401 q 295 380 280 380 q 321 390 311 380 q 332 416 332 401 q 321 442 332 431 q 295 453 311 453 m 877 947 q 870 947 877 947 q 851 937 862 947 q 841 910 841 926 q 851 885 841 895 q 877 874 862 874 q 903 885 892 874 q 914 910 914 895 q 903 937 914 926 q 877 947 892 947 z "},"G":{"ha":1154,"x_min":60,"x_max":1112,"o":"m 311 1019 q 476 1063 389 1063 q 623 1027 564 1063 q 813 1063 706 1063 l 813 945 q 710 936 741 945 q 748 734 748 859 l 630 734 q 612 871 630 833 q 583 801 583 833 q 589 749 583 769 q 605 709 595 728 q 628 672 614 690 l 656 635 l 1042 936 l 1112 842 l 962 725 q 1067 429 1067 596 q 943 125 1067 244 q 594 0 812 0 q 188 163 331 0 q 60 522 60 309 q 177 902 60 746 q 311 1019 233 977 m 726 543 q 789 344 787 440 q 745 235 789 279 q 636 191 701 191 q 530 235 573 190 q 486 344 486 279 q 525 446 486 403 q 624 494 565 490 q 571 557 600 526 q 519 624 544 589 q 464 789 464 706 q 517 942 464 871 q 484 945 501 945 q 262 819 350 945 q 178 522 178 697 q 278 247 179 362 q 463 134 347 167 q 600 118 522 118 q 745 142 678 118 q 856 210 810 168 q 949 429 949 297 q 869 654 949 557 l 726 543 m 637 379 q 630 379 637 379 q 611 368 622 379 q 601 342 601 357 q 611 316 601 327 q 637 306 622 306 q 663 316 652 306 q 674 342 674 327 q 663 368 674 357 q 637 379 652 379 z "},"H":{"ha":972,"x_min":23,"x_max":919,"o":"m 765 949 q 724 937 765 949 q 678 913 688 927 q 669 884 669 899 q 675 855 669 869 q 692 825 682 840 q 716 793 703 809 q 804 692 716 793 q 919 397 918 557 q 823 133 920 237 q 583 -3 740 43 q 401 60 467 52 q 347 62 375 62 q 300 56 319 62 q 269 38 281 49 q 243 -17 244 16 q 259 -64 243 -47 q 318 -92 286 -91 l 318 -204 q 184 -149 240 -204 q 129 -15 129 -93 q 152 76 129 35 q 213 142 174 117 q 77 234 131 164 q 23 392 23 303 l 144 392 q 185 292 144 334 q 285 251 227 251 q 384 290 342 251 q 426 386 426 330 q 342 543 426 471 q 292 584 319 563 q 236 629 264 605 q 186 683 208 654 q 137 831 137 747 q 344 1067 137 978 l 393 965 q 296 908 317 927 q 256 839 256 872 q 265 785 256 806 q 290 745 274 764 q 353 685 315 715 l 419 632 q 467 588 446 609 l 627 712 l 597 751 q 550 886 550 816 q 598 998 550 956 q 736 1063 646 1040 l 765 949 m 528 486 q 543 379 544 435 q 511 266 543 322 q 427 176 479 210 q 589 122 498 166 q 801 397 801 195 q 709 625 801 512 l 528 486 z "},"I":{"ha":1114,"x_min":65,"x_max":1055,"o":"m 972 764 q 954 751 972 764 q 890 726 936 739 q 789 713 844 713 q 668 741 734 713 l 562 656 q 598 590 577 621 l 684 465 q 759 241 759 353 q 727 122 759 175 q 749 119 736 119 l 770 118 q 795 118 779 118 q 838 129 812 117 q 883 159 864 140 q 925 259 925 201 q 883 359 925 317 q 782 401 841 401 l 782 519 q 966 443 890 519 q 1042 259 1042 367 q 966 75 1042 151 q 782 -1 889 -1 q 513 106 650 -1 q 378 193 429 172 q 292 214 328 214 q 236 207 255 214 q 206 190 218 199 q 184 154 184 172 q 194 126 184 136 q 219 115 203 115 l 219 0 q 113 45 156 0 q 68 153 68 90 q 119 274 68 224 q 281 332 179 332 q 551 231 421 331 l 622 177 q 641 248 641 206 q 626 327 641 290 q 589 398 611 365 q 540 463 566 431 q 491 530 513 494 q 439 710 439 614 l 559 805 q 510 844 537 821 q 454 890 484 868 q 341 945 383 945 q 271 930 299 945 q 224 895 243 917 q 183 808 183 850 q 197 739 184 765 q 235 696 210 713 q 363 661 283 661 l 363 543 q 149 608 229 543 q 65 799 65 676 q 138 975 65 895 q 334 1063 218 1063 q 567 955 445 1063 q 689 862 644 886 q 772 832 733 837 q 751 905 751 868 q 764 970 751 942 q 795 1019 775 998 q 903 1063 839 1063 q 1010 1018 966 1063 q 1055 918 1055 974 q 1032 826 1055 863 q 972 764 1009 789 m 902 947 q 895 947 902 947 q 877 937 887 947 q 866 910 866 926 q 877 885 866 895 q 902 874 887 874 q 928 885 918 874 q 939 910 939 895 q 928 937 939 926 q 902 947 918 947 z "},"J":{"ha":1145,"x_min":16,"x_max":1142,"o":"m 763 544 q 824 644 824 602 q 795 713 823 685 q 726 741 766 742 q 658 713 686 741 q 630 648 630 685 q 641 581 630 612 q 669 520 651 550 q 709 460 686 490 l 755 401 l 754 401 l 811 328 q 912 64 911 195 q 846 -101 912 -35 q 658 -173 774 -173 q 437 -64 521 -174 q 367 45 397 -12 q 318 130 336 102 q 267 37 309 73 q 167 0 224 0 q 60 45 104 0 q 16 153 16 90 l 16 165 q 68 269 20 227 q 203 313 121 313 q 409 197 330 313 q 452 129 431 163 l 492 62 q 660 -55 563 -55 q 758 -19 720 -56 q 793 58 793 14 q 782 136 793 102 q 752 204 770 171 q 709 268 733 237 l 606 400 q 530 537 547 478 q 512 650 512 596 q 539 753 512 705 q 615 829 566 801 l 570 867 q 421 945 478 944 q 312 895 357 944 q 271 808 271 850 q 285 739 271 765 q 321 696 297 713 q 451 661 370 661 l 451 543 q 237 608 317 543 q 153 799 153 676 q 225 975 152 895 q 421 1063 305 1063 q 654 955 532 1063 q 776 862 732 886 q 860 832 821 837 q 839 905 839 868 q 850 970 839 942 q 883 1019 863 998 q 990 1063 926 1063 q 1098 1018 1053 1063 q 1142 921 1142 974 q 1124 835 1142 869 q 1077 777 1107 801 q 930 715 1017 727 q 942 637 942 676 q 916 550 942 597 q 843 458 889 502 l 763 544 m 168 189 q 160 189 168 189 q 142 178 153 189 q 132 152 132 167 q 142 126 132 136 q 168 115 153 115 q 194 126 183 115 q 205 152 205 136 q 194 178 205 167 q 168 189 183 189 m 990 947 q 982 947 990 947 q 964 937 975 947 q 954 910 954 926 q 964 885 954 895 q 990 874 975 874 q 1016 885 1005 874 q 1027 910 1027 895 q 1016 937 1027 926 q 990 947 1005 947 z "},"K":{"ha":983,"x_min":23,"x_max":945,"o":"m 500 454 q 546 297 546 372 q 528 169 546 222 q 475 79 510 117 q 272 0 403 -1 q 107 60 180 0 q 23 250 23 130 q 77 385 23 335 q 186 428 125 428 q 286 373 244 427 q 328 241 328 318 l 210 241 q 203 289 210 269 q 186 309 195 309 q 156 295 170 309 q 142 249 142 281 q 155 191 142 216 q 187 151 168 167 q 267 118 226 118 q 337 130 309 118 q 387 164 366 142 q 428 285 429 210 q 365 445 427 357 l 329 496 l 330 496 l 283 560 q 203 793 203 677 q 281 998 202 927 q 480 1063 353 1063 q 646 1008 579 1063 q 715 855 715 950 q 688 756 715 808 l 729 789 q 765 859 765 819 q 738 943 765 880 l 847 987 q 884 867 884 904 q 876 806 884 831 q 856 760 868 781 q 813 704 835 722 q 779 675 792 686 l 751 655 q 780 576 772 624 l 838 199 q 945 77 849 123 l 894 -30 q 720 182 745 38 l 663 558 q 659 581 661 572 l 500 454 m 433 553 l 527 627 l 475 695 l 514 728 q 597 857 597 798 q 525 939 598 918 q 474 945 503 945 q 415 935 444 945 q 364 906 385 925 q 321 791 321 866 q 387 615 320 709 l 425 564 q 429 558 428 558 l 433 553 m 659 581 l 658 581 l 659 581 z "},"L":{"ha":1026,"x_min":36,"x_max":1010,"o":"m 168 321 q 144 397 144 358 q 155 462 144 435 q 184 509 165 488 q 285 555 224 551 l 256 604 q 202 791 202 692 q 285 985 202 909 q 504 1063 370 1063 q 711 966 635 1063 q 779 749 779 878 l 660 749 q 621 884 661 829 q 504 945 578 945 q 370 902 422 945 q 320 791 320 859 q 353 670 320 735 q 384 613 368 642 q 414 553 400 585 q 448 410 448 480 q 402 296 448 340 q 497 238 450 273 l 570 184 q 751 117 663 117 q 851 159 809 117 q 892 259 892 201 q 850 359 892 317 q 749 401 808 401 l 749 519 q 933 443 857 519 q 1010 259 1010 367 q 933 75 1009 151 q 749 -1 857 -1 q 472 106 606 -1 q 342 193 390 172 q 258 214 294 214 q 203 207 222 214 q 174 190 186 199 q 152 154 152 172 q 161 126 151 136 q 186 115 171 115 l 186 0 q 80 45 123 0 q 36 153 36 90 q 109 292 36 239 q 168 321 134 311 m 295 441 q 288 441 295 441 q 270 430 280 441 q 259 404 259 419 q 270 378 259 389 q 295 368 280 368 q 321 378 311 368 q 332 404 332 389 q 321 430 332 419 q 295 441 311 441 z "},"M":{"ha":1579,"x_min":20,"x_max":1555,"o":"m 699 97 q 557 -22 646 97 l 472 42 q 601 181 532 136 q 699 216 652 216 q 802 149 781 216 q 945 548 911 330 q 955 674 955 612 q 950 789 955 737 q 933 876 945 842 q 851 944 909 944 q 682 850 769 944 q 637 800 658 825 q 659 672 659 730 q 654 572 659 614 q 638 484 650 531 q 607 383 627 437 q 555 267 587 330 q 378 -19 490 136 l 297 12 q 284 77 297 58 q 254 97 272 97 q 113 -27 208 97 l 20 44 q 256 216 149 216 q 359 151 334 216 q 541 651 541 422 q 479 863 541 774 q 349 945 422 945 q 264 919 292 945 q 236 859 236 894 q 250 802 236 825 q 283 758 263 779 q 327 716 303 737 q 370 669 350 694 q 417 537 418 608 q 373 428 417 473 q 264 384 328 384 q 157 429 201 384 q 113 537 113 473 q 174 658 113 612 q 214 680 192 671 q 151 739 168 713 q 117 844 117 789 q 132 937 117 899 q 176 1004 148 976 q 349 1063 237 1063 q 476 1028 415 1063 q 582 930 537 994 q 851 1063 705 1063 q 952 1042 914 1063 q 1017 978 990 1022 q 1092 1034 1063 1019 q 1208 1063 1148 1063 q 1307 1027 1269 1063 q 1356 928 1345 991 q 1380 840 1366 859 q 1409 816 1394 820 q 1436 900 1436 840 l 1555 900 q 1477 722 1554 784 l 1425 681 q 1294 473 1329 610 q 1282 361 1282 425 q 1300 250 1282 298 q 1347 174 1318 203 q 1478 118 1401 118 l 1478 0 q 1268 83 1356 0 q 1163 372 1163 184 q 1314 741 1163 597 q 1270 794 1282 763 q 1253 846 1257 825 l 1244 884 q 1225 931 1237 919 q 1187 944 1213 944 q 1058 857 1137 944 q 1073 680 1073 767 q 1061 513 1073 593 q 1019 345 1048 433 q 820 -19 954 150 l 739 12 q 699 97 739 97 m 265 572 q 257 572 265 572 q 239 562 250 572 q 229 535 229 551 q 239 510 229 520 q 265 499 250 499 q 291 510 280 499 q 302 535 302 520 q 291 562 302 551 q 265 572 280 572 z "},"N":{"ha":1173,"x_min":26,"x_max":1160,"o":"m 260 216 q 366 157 332 216 q 545 651 545 426 q 486 863 545 778 q 342 945 427 945 q 259 919 287 945 q 231 859 231 894 q 245 802 231 825 q 278 758 258 779 q 321 716 298 737 q 365 669 345 694 q 412 537 412 608 q 368 428 412 473 q 259 384 323 384 q 153 429 196 384 q 109 537 109 473 q 169 658 109 612 q 210 680 187 671 q 146 739 163 713 q 113 844 113 789 q 127 938 113 899 q 171 1004 142 976 q 342 1063 233 1063 q 625 850 526 1063 l 777 517 q 926 827 802 676 q 1021 966 1000 916 q 1042 1063 1042 1017 l 1160 1063 q 1073 831 1160 940 l 1023 768 q 933 631 956 683 q 886 426 886 527 q 905 269 886 325 q 952 179 924 213 q 1083 118 1005 118 l 1083 0 q 860 92 945 0 q 806 174 829 125 l 650 513 q 382 -19 609 293 l 302 12 q 282 91 302 77 q 259 97 274 97 q 121 -20 210 97 l 26 52 q 213 210 130 189 q 260 216 237 216 m 260 572 q 252 572 260 572 q 234 562 245 572 q 224 535 224 551 q 234 510 224 520 q 260 499 245 499 q 286 510 275 499 q 297 535 297 520 q 286 562 297 551 q 260 572 275 572 z "},"O":{"ha":1124,"x_min":16,"x_max":1069,"o":"m 132 484 q 149 441 132 458 q 193 423 167 423 q 236 441 218 423 q 254 487 254 458 q 245 538 254 515 q 221 583 235 562 q 190 625 206 604 q 159 670 174 646 q 125 793 125 726 q 154 910 125 860 q 237 995 183 961 q 534 1063 345 1063 q 804 991 680 1063 q 996 802 925 921 q 1069 533 1069 678 q 996 264 1069 388 q 805 73 926 143 q 536 0 681 0 q 209 119 357 0 q 123 204 161 157 l 216 279 q 361 161 279 205 q 518 118 443 118 q 646 133 593 118 q 745 175 699 148 q 829 239 791 201 q 894 323 867 277 q 951 520 951 420 q 918 694 951 619 q 829 825 886 769 q 534 945 707 945 q 264 863 324 945 q 243 800 243 835 q 252 743 243 766 q 276 699 262 720 q 307 659 290 679 q 338 613 324 638 q 372 483 372 555 q 320 357 372 409 q 194 305 268 305 q 68 358 119 305 q 16 484 16 411 l 132 484 z "},"P":{"ha":1081,"x_min":63,"x_max":1015,"o":"m 496 191 q 289 79 390 180 l 203 160 q 326 257 277 231 q 496 313 411 303 l 496 728 q 433 888 496 825 q 309 945 375 945 q 214 919 242 945 q 186 859 186 894 q 199 802 186 825 q 233 758 213 779 q 276 716 253 737 q 320 669 300 694 q 367 537 368 608 q 322 428 367 473 q 214 384 278 384 q 107 429 151 384 q 63 537 63 473 q 123 658 63 612 q 164 680 142 671 q 101 739 118 713 q 67 844 67 789 q 82 937 67 899 q 126 1004 98 976 q 298 1063 187 1063 q 468 1009 388 1063 q 587 859 553 951 l 844 1062 l 916 922 q 999 718 983 793 q 1015 579 1015 642 q 1006 473 1015 516 q 983 395 998 429 q 931 303 962 344 q 889 245 901 262 q 864 205 878 228 q 803 81 833 151 q 704 153 750 123 q 614 191 658 183 l 614 87 q 468 -220 614 -155 q 381 -239 427 -239 l 375 -239 q 269 -194 312 -239 q 224 -85 224 -149 q 269 21 224 -23 q 375 65 313 65 q 490 -5 456 65 q 496 56 496 14 l 496 191 m 614 311 q 760 262 690 302 l 783 298 l 841 383 q 897 574 897 469 q 879 719 897 666 q 844 806 861 772 l 806 882 l 614 730 l 614 311 m 376 -50 q 368 -50 376 -50 q 350 -61 361 -50 q 340 -87 340 -72 q 350 -113 340 -102 q 376 -123 361 -123 q 402 -113 391 -123 q 413 -87 413 -102 q 402 -61 413 -72 q 376 -50 391 -50 m 215 572 q 207 572 215 572 q 189 562 199 572 q 178 535 178 551 q 189 510 178 520 q 215 499 199 499 q 241 510 230 499 q 252 535 252 520 q 241 562 252 551 q 215 572 230 572 z "},"Q":{"ha":1124,"x_min":17,"x_max":1378,"o":"m 847 258 q 951 533 951 375 q 829 825 951 704 q 534 945 707 945 q 264 863 325 945 q 243 800 243 835 q 253 743 243 766 q 277 699 262 720 q 308 659 291 679 q 339 613 325 638 q 372 483 372 555 q 320 357 372 409 q 195 305 269 305 q 69 358 121 305 q 17 484 18 411 l 132 484 q 150 441 132 458 q 193 423 168 423 q 237 441 219 423 q 255 487 255 458 q 245 538 255 515 q 221 583 236 562 q 190 625 207 604 q 159 670 174 646 q 125 793 125 726 q 155 910 125 860 q 237 995 184 961 q 534 1063 346 1063 q 804 991 680 1063 q 997 802 926 921 q 1069 533 1070 678 q 922 164 1069 318 q 985 64 955 115 q 1043 -27 1015 14 q 1168 -121 1109 -121 q 1283 -66 1227 -121 l 1378 -138 q 1163 -239 1283 -239 q 966 -129 1058 -239 q 882 -11 918 -72 l 824 84 q 536 0 695 0 q 210 119 358 0 q 123 204 163 157 l 216 279 q 361 161 279 205 q 519 118 444 118 q 754 180 654 118 q 577 184 673 267 l 494 269 q 670 343 576 343 q 847 258 764 343 z "},"R":{"ha":1148,"x_min":70,"x_max":1104,"o":"m 541 940 q 715 1063 593 1063 q 854 967 804 1063 q 879 919 869 940 l 895 883 q 939 831 920 831 q 965 850 956 831 q 989 920 978 878 l 1104 891 q 991 721 1076 759 l 890 675 q 926 601 917 654 l 984 209 q 1091 87 996 132 l 1040 -20 q 867 191 888 50 l 810 575 q 781 625 804 616 l 619 551 q 522 183 608 342 q 349 12 458 62 q 241 -14 292 -14 q 162 -2 189 -14 q 114 30 134 9 q 70 137 70 75 q 114 245 70 201 q 221 290 157 290 q 347 222 301 290 q 368 178 361 202 q 496 555 470 296 q 503 686 503 629 q 490 787 503 743 q 452 865 476 830 q 325 945 397 944 q 240 919 269 945 q 212 859 212 894 q 226 802 212 825 q 259 758 239 779 q 302 716 279 737 q 346 669 326 694 q 393 537 393 608 q 349 428 393 473 q 240 384 304 384 q 134 429 177 384 q 90 537 90 473 q 150 658 90 612 q 191 680 168 671 q 127 739 144 713 q 94 844 94 789 q 109 938 94 899 q 152 1004 123 976 q 325 1063 213 1063 q 446 1029 391 1063 q 541 940 501 995 m 704 945 q 675 933 689 945 q 651 901 661 921 q 636 854 642 881 q 627 799 630 829 q 621 682 621 751 l 822 774 q 796 817 806 794 l 760 892 q 704 945 735 945 m 220 174 q 212 174 220 174 q 194 163 205 174 q 184 137 184 153 q 194 112 184 122 q 220 101 205 101 q 246 112 235 101 q 257 137 257 122 q 246 163 257 153 q 220 174 235 174 m 241 572 q 233 572 241 572 q 215 562 226 572 q 205 535 205 551 q 215 510 205 520 q 241 499 226 499 q 267 510 256 499 q 278 535 278 520 q 267 562 278 551 q 241 572 256 572 z "},"S":{"ha":1191,"x_min":47,"x_max":1127,"o":"m 142 406 q 621 119 349 119 q 902 199 792 119 q 1009 394 1009 277 q 971 517 1009 475 q 901 551 940 551 q 831 537 862 551 q 771 503 801 524 q 711 458 742 482 q 640 412 678 433 q 462 364 551 363 q 308 386 374 364 q 191 452 241 408 q 81 727 81 551 q 167 955 81 861 q 452 1063 266 1063 q 674 997 574 1063 q 727 958 702 978 l 775 919 q 822 885 798 900 q 903 1043 822 1002 q 964 1057 930 1057 q 1025 1044 998 1057 q 1074 1012 1054 1032 q 1119 915 1119 967 q 1103 833 1118 863 q 1061 783 1088 803 q 921 745 1010 745 q 686 845 817 745 q 553 925 606 905 q 443 945 500 945 q 336 926 385 945 q 258 876 289 907 q 199 728 199 817 q 274 542 199 608 q 445 482 341 482 q 608 531 528 482 q 673 576 642 552 q 739 621 705 600 q 899 670 817 670 q 1048 610 985 670 q 1127 396 1127 536 q 1090 242 1127 314 q 987 116 1054 170 q 621 0 843 0 q 174 188 372 0 q 47 336 110 249 l 142 406 m 966 943 q 958 943 966 943 q 940 932 951 943 q 930 906 930 921 q 940 880 930 890 q 966 869 951 869 q 992 880 981 869 q 1003 906 1003 890 q 992 932 1003 921 q 966 943 981 943 z "},"T":{"ha":1004,"x_min":19,"x_max":1008,"o":"m 926 764 q 908 751 926 764 q 844 726 890 739 q 743 713 798 713 q 622 741 688 713 l 515 656 q 573 555 534 609 l 632 471 q 708 240 708 359 q 637 70 708 140 q 467 0 568 0 q 297 70 367 0 q 227 240 227 140 q 258 358 227 304 q 339 445 288 412 l 401 345 q 344 241 344 309 q 380 154 344 190 q 467 118 416 118 q 553 154 518 118 q 590 232 590 191 q 581 303 590 273 q 557 360 572 333 q 525 413 543 388 l 488 463 q 425 561 442 521 q 393 710 393 637 l 513 805 q 464 844 491 821 q 408 890 438 868 q 295 945 337 945 q 225 930 253 945 q 178 895 197 917 q 137 808 137 850 q 151 739 138 765 q 189 696 164 713 q 317 661 237 661 l 317 543 q 103 608 183 543 q 19 799 19 676 q 92 975 19 895 q 288 1063 172 1063 q 521 955 399 1063 q 643 862 598 886 q 726 832 687 837 q 705 905 705 868 q 718 970 705 942 q 749 1019 729 998 q 857 1063 793 1063 q 964 1018 920 1063 q 1008 918 1008 974 q 986 826 1008 863 q 926 764 963 789 m 856 947 q 849 947 856 947 q 830 937 841 947 q 820 910 820 926 q 830 885 820 895 q 856 874 841 874 q 882 885 871 874 q 893 910 893 895 q 882 937 893 926 q 856 947 871 947 z "},"U":{"ha":833,"x_min":63,"x_max":777,"o":"m 711 -20 q 570 203 573 64 l 268 -20 l 208 50 q 97 332 97 183 q 120 522 97 410 q 153 694 142 634 q 163 806 163 755 q 138 893 163 857 q 63 969 113 929 l 134 1063 q 273 883 250 974 q 281 799 281 850 q 271 689 281 747 q 248 574 260 631 q 215 332 215 418 q 284 142 215 235 l 570 354 l 570 1042 l 688 1042 l 688 231 q 709 143 688 179 q 777 74 729 107 l 711 -20 z "},"V":{"ha":1100,"x_min":70,"x_max":1027,"o":"m 428 181 q 431 144 431 166 q 419 93 431 121 q 387 45 407 65 q 277 0 342 0 q 171 45 214 0 q 127 153 127 90 q 233 309 129 268 q 319 323 270 323 q 408 310 368 323 q 496 651 496 480 q 439 863 496 779 q 305 945 382 945 q 221 919 249 945 q 193 859 193 894 q 206 802 193 825 q 240 758 220 779 q 283 716 260 737 q 327 669 307 694 q 374 537 374 608 q 329 428 374 473 q 220 384 285 384 q 114 429 157 384 q 70 537 70 473 q 130 658 70 612 q 171 680 149 671 q 108 739 125 713 q 74 844 74 789 q 89 937 74 899 q 133 1004 104 976 q 305 1063 194 1063 q 420 1033 364 1063 q 519 948 475 1002 q 615 651 615 827 q 506 248 615 456 q 556 202 533 225 q 605 161 579 180 q 721 119 663 119 q 811 137 779 119 q 864 183 844 155 q 905 323 905 240 q 863 518 905 422 l 812 630 q 768 835 768 733 q 844 1008 768 948 q 1027 1064 913 1063 l 1027 945 q 897 886 928 945 q 886 835 886 865 q 891 777 886 804 q 905 723 897 749 q 924 673 913 697 l 975 562 q 1023 323 1023 450 q 954 99 1023 186 q 737 0 876 0 q 545 61 616 0 q 479 127 509 92 q 428 181 449 161 m 278 189 q 271 189 278 189 q 253 178 263 189 q 242 152 242 167 q 253 126 242 136 q 278 115 263 115 q 304 126 294 115 q 315 152 315 136 q 304 178 315 167 q 278 189 294 189 m 221 572 q 214 572 221 572 q 196 562 206 572 q 185 535 185 551 q 196 510 185 520 q 221 499 206 499 q 248 510 237 499 q 258 535 258 520 q 248 562 258 551 q 221 572 237 572 z "},"W":{"ha":1437,"x_min":70,"x_max":1363,"o":"m 428 181 q 431 144 431 166 q 419 93 431 121 q 387 45 407 65 q 277 0 342 0 q 171 45 214 0 q 127 153 127 90 q 233 309 129 268 q 319 323 270 323 q 408 310 368 323 q 496 651 496 480 q 439 863 496 779 q 305 945 382 945 q 221 919 249 945 q 193 859 193 894 q 206 802 193 825 q 240 758 220 779 q 283 716 260 737 q 327 669 307 694 q 374 537 374 608 q 329 428 374 473 q 220 384 285 384 q 114 429 157 384 q 70 537 70 473 q 130 658 70 612 q 171 680 149 671 q 108 739 125 713 q 74 844 74 789 q 89 937 74 899 q 133 1004 104 976 q 305 1063 194 1063 q 420 1033 364 1063 q 519 948 475 1002 q 615 651 615 827 q 506 248 615 456 q 556 202 533 225 q 605 161 579 180 q 721 119 663 119 q 811 137 779 119 q 864 183 844 155 q 905 323 905 240 q 863 518 905 422 l 812 630 q 768 835 768 733 q 844 1008 768 948 q 1027 1064 913 1063 l 1027 945 q 897 886 928 945 q 886 835 886 865 q 891 777 886 804 q 905 723 897 749 q 924 673 913 697 l 975 562 q 1023 323 1023 450 q 978 136 1023 214 q 1067 117 1019 117 q 1147 135 1116 117 q 1200 182 1179 153 q 1241 323 1241 239 q 1200 518 1241 420 l 1150 630 q 1105 835 1105 735 q 1180 1008 1105 948 q 1363 1064 1250 1063 l 1363 945 q 1234 886 1265 945 q 1223 835 1223 865 q 1229 777 1223 804 q 1242 723 1234 749 q 1261 673 1251 697 l 1312 562 q 1360 323 1360 450 q 1291 98 1360 186 q 1074 -1 1213 -2 q 897 45 972 -1 q 737 0 831 0 q 545 61 616 0 q 479 127 509 92 q 428 181 449 161 m 221 572 q 214 572 221 572 q 196 562 206 572 q 185 535 185 551 q 196 510 185 520 q 221 499 206 499 q 248 510 237 499 q 258 535 258 520 q 248 562 258 551 q 221 572 237 572 m 278 189 q 271 189 278 189 q 253 178 263 189 q 242 152 242 167 q 253 126 242 136 q 278 115 263 115 q 304 126 294 115 q 315 152 315 136 q 304 178 315 167 q 278 189 294 189 z "},"X":{"ha":1013,"x_min":-21,"x_max":1034,"o":"m 848 701 l 741 475 l 556 475 l 556 249 q 612 134 556 170 q 648 120 629 123 l 747 206 l 823 116 l 704 0 q 481 115 539 0 q 460 223 460 159 q 402 83 429 123 q 283 0 349 0 q 160 81 198 0 l 140 125 l 94 31 l -21 61 q 81 227 14 180 q 138 244 107 244 q 189 234 170 243 q 220 211 208 225 q 239 180 232 197 l 251 151 q 263 127 256 136 q 284 118 271 118 q 315 149 298 118 q 349 231 332 180 q 385 346 368 282 l 420 475 l 317 475 l 241 315 l 133 367 l 252 590 l 437 590 l 437 785 q 345 943 437 927 l 247 857 l 171 947 l 290 1063 q 515 927 461 1063 q 534 811 534 879 l 567 903 q 656 1042 604 1002 q 723 1063 686 1063 q 781 1055 760 1063 q 817 1031 802 1046 q 851 984 836 1013 q 869 949 865 956 q 873 939 873 942 l 926 1042 l 1034 1002 q 930 837 995 880 q 874 820 905 819 q 826 829 844 820 q 797 852 808 838 q 779 883 785 867 l 766 913 q 732 945 751 945 q 694 916 712 945 q 656 837 676 886 q 617 723 637 787 l 573 590 l 665 590 l 741 751 l 848 701 z "},"Y":{"ha":1001,"x_min":65,"x_max":893,"o":"m 365 450 q 479 699 479 595 q 427 865 479 791 q 300 945 373 944 q 216 919 244 945 q 188 859 188 894 q 201 802 188 825 q 235 758 215 779 q 278 716 255 737 q 321 669 301 694 q 369 537 369 608 q 325 428 369 473 q 216 384 280 384 q 109 429 153 384 q 65 537 65 473 q 125 658 65 612 q 166 680 144 671 q 103 739 120 713 q 69 844 69 789 q 84 938 69 899 q 127 1004 99 976 q 300 1063 189 1063 q 512 947 422 1063 q 597 699 597 837 q 524 475 598 586 q 481 416 503 444 q 551 270 486 333 l 765 438 q 755 536 760 490 q 746 626 750 582 q 738 715 741 671 q 731 811 734 761 q 724 1049 724 918 l 842 1049 q 865 621 838 833 q 893 258 893 398 q 858 30 893 117 q 762 -118 822 -58 q 459 -239 641 -239 q 239 -182 338 -239 q 123 6 123 -116 q 167 113 123 68 q 273 157 211 157 q 382 113 338 157 q 427 3 427 69 q 373 -111 427 -63 q 468 -121 415 -121 q 577 -98 520 -121 q 678 -30 635 -75 q 774 233 774 70 l 774 296 l 549 118 q 365 450 365 264 m 274 41 q 267 41 274 41 q 249 31 259 41 q 238 4 238 20 q 249 -21 238 -11 q 274 -32 259 -32 q 300 -21 290 -32 q 311 4 311 -11 q 300 31 311 20 q 274 41 290 41 m 217 572 q 209 572 217 572 q 191 562 201 572 q 180 535 180 551 q 191 510 180 520 q 217 499 201 499 q 243 510 232 499 q 254 535 254 520 q 243 562 254 551 q 217 572 232 572 z "},"Z":{"ha":851,"x_min":52,"x_max":823,"o":"m 646 935 q 484 904 566 904 q 343 924 403 904 q 294 834 335 869 q 197 798 254 798 q 94 841 136 798 q 52 946 52 884 q 94 1049 52 1006 q 197 1092 137 1092 q 283 1079 247 1092 q 340 1057 319 1065 q 384 1040 361 1048 q 488 1021 435 1021 q 648 1063 581 1021 l 759 1063 q 765 955 765 1019 q 752 836 765 890 q 716 733 739 781 q 662 644 693 686 q 594 564 631 602 q 519 492 559 526 l 358 357 q 182 118 214 233 l 498 118 q 729 228 649 118 l 823 155 q 498 0 712 0 l 54 0 q 151 306 54 175 q 265 431 206 382 l 427 568 q 646 935 636 749 m 197 982 q 189 982 197 982 q 171 971 182 982 q 161 945 161 960 q 171 919 161 930 q 197 909 182 909 q 223 919 212 909 q 234 945 234 930 q 223 971 234 960 q 197 982 212 982 z "},"[":{"ha":420,"x_min":99,"x_max":414,"o":"m 414 -132 l 99 -132 l 99 1081 l 414 1081 l 414 973 l 214 973 l 214 -24 l 414 -24 l 414 -132 z "},"\\":{"ha":621,"x_min":43,"x_max":594,"o":"m 151 1061 l 594 -107 l 482 -136 l 43 1019 l 151 1061 z "},"]":{"ha":420,"x_min":6,"x_max":321,"o":"m 6 -24 l 206 -24 l 206 973 l 6 973 l 6 1081 l 321 1081 l 321 -132 l 6 -132 l 6 -24 z "},"^":{"ha":954,"x_min":34,"x_max":920,"o":"m 784 370 l 492 833 l 175 370 l 34 370 l 459 989 l 530 989 l 920 370 l 784 370 z "},"_":{"ha":694,"x_min":0,"x_max":694,"o":"m 0 -214 l 0 -106 l 694 -106 l 694 -214 l 0 -214 z "},"`":{"ha":382,"x_min":34,"x_max":349,"o":"m 34 1042 l 113 1149 l 349 977 l 287 880 l 34 1042 z "},"a":{"ha":541,"x_min":58,"x_max":530,"o":"m 174 145 q 195 106 174 119 l 327 205 l 327 658 l 232 584 q 174 460 174 538 l 174 145 m 465 -20 q 359 82 392 24 l 222 -20 q 73 79 113 -1 q 58 145 58 107 l 58 460 q 158 672 58 597 l 372 834 l 442 798 l 442 231 q 463 143 442 179 q 530 74 483 107 l 465 -20 z "},"b":{"ha":520,"x_min":90,"x_max":483,"o":"m 310 834 q 475 552 449 700 q 483 456 483 506 q 321 110 483 249 l 171 -20 l 90 25 l 90 831 q 211 1096 90 991 q 290 1150 248 1127 l 348 1050 q 216 902 248 997 q 205 831 205 869 l 205 749 l 310 834 m 205 598 l 205 159 l 247 196 q 368 460 368 302 q 286 665 368 569 l 205 598 z "},"c":{"ha":463,"x_min":60,"x_max":450,"o":"m 253 -20 q 60 210 60 35 l 60 508 q 79 624 60 585 q 169 732 110 691 l 314 834 l 450 575 l 356 519 l 275 667 l 235 638 q 176 508 176 595 l 176 210 q 231 110 176 140 l 368 217 l 436 122 l 253 -20 z "},"d":{"ha":501,"x_min":51,"x_max":473,"o":"m 230 1055 q 165 943 165 1010 q 298 749 165 861 q 412 631 380 680 q 473 435 473 534 q 312 110 473 249 l 161 -20 l 80 25 l 80 562 q 113 652 80 617 l 166 712 q 51 942 51 815 q 123 1115 51 1039 q 164 1151 144 1137 l 230 1055 m 323 290 q 333 308 323 290 q 351 356 343 326 q 358 418 358 386 q 349 481 358 451 q 326 539 340 511 q 254 637 297 594 l 195 570 l 195 159 l 237 196 q 323 290 302 254 z "},"e":{"ha":476,"x_min":60,"x_max":451,"o":"m 253 -20 q 60 210 60 35 l 60 508 q 79 624 60 585 q 169 732 110 691 l 314 834 l 451 574 l 176 367 l 176 210 q 231 110 176 140 l 368 217 l 436 122 l 253 -20 m 235 638 q 176 511 177 595 l 306 607 q 274 666 281 652 l 235 638 z "},"f":{"ha":404,"x_min":-9,"x_max":456,"o":"m 259 947 q 224 887 224 947 q 233 816 224 859 l 246 760 l 387 760 l 387 644 l 269 644 q 288 377 288 504 q 286 199 288 251 q 282 91 286 148 q 256 -177 273 -41 l 141 -162 q 172 241 172 68 q 155 629 172 496 q 61 575 109 610 l -9 667 q 131 743 68 724 q 109 886 109 841 q 117 960 109 930 q 141 1013 125 990 q 239 1063 177 1063 q 336 1031 286 1063 l 306 1097 l 398 1150 q 456 991 456 1049 q 408 910 456 933 q 371 902 392 902 q 334 909 349 903 q 305 925 317 917 l 281 940 q 259 947 271 947 z "},"g":{"ha":532,"x_min":-7,"x_max":502,"o":"m 196 -115 q 243 -123 216 -123 q 296 -109 270 -123 q 342 -73 323 -95 q 385 35 385 -25 q 347 175 385 83 l 216 78 q 67 177 107 98 q 53 243 53 205 l 53 461 q 153 673 53 598 l 367 835 l 437 799 l 437 307 q 448 241 437 272 q 469 179 457 210 q 502 36 502 94 q 481 -72 502 -22 q 426 -159 461 -122 q 239 -239 349 -239 q 75 -192 146 -239 q -7 -47 -7 -138 q 26 32 -7 -1 q 106 65 59 65 q 186 33 152 65 q 219 -42 219 0 q 196 -115 219 -85 m 169 243 q 190 205 169 217 l 321 306 l 321 659 l 227 585 q 169 461 169 540 l 169 243 z "},"h":{"ha":567,"x_min":91,"x_max":505,"o":"m 174 -111 q 389 300 389 102 l 389 503 q 337 672 389 595 l 206 565 l 206 0 l 91 0 l 91 834 q 214 1097 91 998 q 294 1150 251 1127 l 351 1047 q 254 977 279 1009 q 207 834 207 916 l 206 715 l 350 834 q 505 503 505 662 l 505 300 q 259 -189 505 56 l 174 -111 z "},"i":{"ha":298,"x_min":82,"x_max":290,"o":"m 197 816 l 197 231 q 218 143 197 179 q 286 74 238 107 l 220 -20 q 89 146 109 50 q 82 216 82 179 l 82 816 l 197 816 m 197 864 l 90 900 l 170 1091 l 290 1043 l 197 864 z "},"j":{"ha":284,"x_min":-77,"x_max":298,"o":"m 201 833 l 201 208 q 193 47 201 98 q 169 -46 184 -4 q 125 -125 153 -89 q -48 -239 64 -206 l -77 -127 q 84 145 77 -82 q 85 208 85 178 l 85 833 l 201 833 m 205 864 l 98 900 l 178 1091 l 298 1043 l 205 864 z "},"k":{"ha":591,"x_min":91,"x_max":575,"o":"m 206 650 q 465 852 206 650 l 530 758 l 386 645 q 470 545 448 585 q 507 406 507 476 q 500 327 507 370 q 487 218 487 245 q 491 176 487 191 q 506 144 496 160 q 575 71 526 112 l 506 -20 q 378 150 399 64 q 372 205 372 178 q 375 257 372 233 q 381 304 378 281 q 391 411 391 372 q 294 572 391 493 l 206 503 l 206 0 l 91 0 l 91 834 q 214 1097 91 998 q 294 1150 251 1127 l 351 1047 q 254 977 279 1009 q 206 834 206 916 l 206 650 z "},"l":{"ha":298,"x_min":91,"x_max":351,"o":"m 351 1047 q 254 977 279 1009 q 207 834 207 916 l 207 0 l 91 0 l 91 834 q 214 1097 91 998 q 294 1150 251 1127 l 351 1047 z "},"m":{"ha":840,"x_min":22,"x_max":829,"o":"m 479 584 q 481 543 481 566 l 481 0 l 365 0 l 365 543 q 332 673 365 621 l 212 579 l 212 0 l 96 0 l 96 636 q 47 720 96 678 q 22 740 34 732 l 86 836 q 199 715 175 779 l 351 834 q 446 705 420 755 l 610 833 q 748 600 713 718 q 760 517 760 558 q 753 393 760 460 q 741 202 741 266 q 829 72 741 139 l 760 -20 q 631 150 651 64 q 624 213 624 178 q 628 286 625 248 q 635 361 631 324 q 644 517 644 458 q 593 673 644 595 l 479 584 z "},"n":{"ha":579,"x_min":22,"x_max":568,"o":"m 480 207 q 568 72 480 139 l 498 -20 q 370 150 391 64 q 364 213 363 178 q 368 286 364 248 q 374 361 370 324 q 384 517 384 458 q 332 674 384 595 l 212 580 l 212 0 l 96 0 l 96 637 q 47 722 96 680 q 22 741 35 732 l 85 838 q 198 715 174 780 l 350 834 q 487 601 453 719 q 499 517 499 559 q 492 397 499 468 q 480 207 480 259 z "},"o":{"ha":508,"x_min":66,"x_max":450,"o":"m 66 19 l 66 540 q 150 720 66 657 l 302 835 q 393 758 366 791 q 450 621 450 690 l 450 307 q 366 144 450 207 l 146 -21 l 66 19 m 218 627 q 182 540 182 597 l 182 149 l 298 233 q 334 307 334 259 l 334 621 q 302 692 334 660 l 218 627 z "},"p":{"ha":604,"x_min":-44,"x_max":545,"o":"m 108 70 q 71 0 85 70 l -44 0 q 108 186 -18 186 q 134 184 121 186 l 134 579 q 117 648 133 607 q 85 751 85 725 q 91 796 85 778 q 108 833 96 814 q 189 918 132 869 l 268 831 l 236 803 q 201 752 201 771 q 218 691 201 722 l 391 834 l 448 768 q 527 645 509 696 q 545 554 545 593 l 545 290 q 458 89 545 157 l 318 -20 l 250 14 l 250 -239 l 134 -239 l 134 67 q 108 70 120 70 m 250 566 l 250 144 q 289 124 280 128 q 306 115 298 119 l 386 178 q 429 290 429 213 l 429 554 q 378 673 429 608 l 250 566 z "},"q":{"ha":532,"x_min":58,"x_max":530,"o":"m 174 144 q 195 105 174 117 l 327 203 l 327 658 l 232 584 q 174 460 174 538 l 174 144 m 327 57 l 222 -20 q 73 77 112 -1 q 58 144 58 106 l 58 460 q 158 672 58 597 l 372 834 l 442 798 l 442 13 q 463 -75 442 -39 q 530 -144 483 -111 l 465 -239 q 334 -72 354 -169 q 327 -2 327 -39 l 327 57 z "},"r":{"ha":431,"x_min":22,"x_max":439,"o":"m 85 834 q 183 743 157 790 l 298 834 q 439 610 388 749 l 337 551 q 282 653 315 611 l 211 597 l 211 0 l 96 0 l 96 634 q 22 737 96 688 l 85 834 z "},"s":{"ha":607,"x_min":17,"x_max":582,"o":"m 374 882 q 293 834 319 882 l 169 834 q 241 952 184 906 q 373 999 299 1000 q 521 938 460 999 q 582 790 582 877 q 494 620 582 682 q 435 591 467 601 q 549 403 521 509 q 559 322 559 368 q 541 222 559 276 q 484 121 521 168 q 271 -20 406 22 l 168 82 q 60 271 60 189 q 113 392 60 331 l 187 307 q 175 277 175 290 q 182 251 175 265 q 201 222 189 237 q 227 190 212 206 l 298 113 q 434 271 401 168 q 444 336 444 302 q 428 407 444 371 q 387 466 411 442 l 224 343 l 17 598 l 246 802 l 294 744 q 374 699 330 699 q 439 725 412 699 q 466 790 466 752 q 439 856 466 829 q 374 882 412 882 m 355 582 q 231 637 283 589 l 174 591 l 243 499 l 355 582 z "},"t":{"ha":416,"x_min":-15,"x_max":397,"o":"m 144 644 q 61 602 114 644 l 45 589 l -15 681 l 23 708 q 155 760 94 760 l 216 968 l 327 939 l 275 760 l 397 760 l 397 644 l 259 644 l 259 393 q 259 247 259 315 q 280 143 260 179 q 348 74 300 107 l 282 -20 q 151 146 172 50 q 144 216 144 179 l 144 644 z "},"u":{"ha":584,"x_min":12,"x_max":572,"o":"m 12 743 l 81 835 q 209 665 189 751 q 215 602 216 637 q 212 529 215 566 q 205 454 209 491 q 196 302 196 351 q 248 140 196 216 l 368 234 l 368 813 l 484 813 l 484 231 q 504 143 484 179 q 572 74 524 107 l 506 -20 q 389 104 421 33 l 229 -20 q 92 212 127 94 q 80 296 80 254 q 87 420 80 353 q 100 611 100 548 q 12 743 100 674 z "},"v":{"ha":526,"x_min":28,"x_max":477,"o":"m 94 652 q 83 693 94 678 q 28 748 67 714 l 106 834 q 183 756 166 781 q 210 673 210 716 l 210 163 l 311 245 q 361 374 361 285 l 361 541 q 316 663 362 604 q 286 699 302 680 l 237 752 l 320 834 l 368 782 q 439 688 420 724 q 477 543 477 619 l 477 374 q 385 156 477 232 l 172 -20 l 94 31 l 94 652 z "},"w":{"ha":793,"x_min":28,"x_max":744,"o":"m 210 163 l 311 245 q 361 366 359 283 l 361 652 q 350 693 361 678 q 295 748 334 714 l 373 834 q 450 756 433 781 q 477 673 477 716 l 477 163 l 578 245 q 629 374 629 285 l 629 541 q 583 663 629 604 q 553 699 570 680 l 505 752 l 587 834 l 635 782 q 707 688 688 724 q 744 543 744 619 l 744 374 q 652 156 744 232 l 439 -20 l 361 31 l 361 136 l 172 -20 l 94 31 l 94 652 q 83 693 94 678 q 28 748 67 714 l 106 834 q 183 756 166 781 q 210 673 210 716 l 210 163 z "},"x":{"ha":553,"x_min":25,"x_max":528,"o":"m 312 -123 q 300 -74 300 -98 q 309 -28 300 -49 q 334 8 319 -7 q 413 41 366 41 q 493 8 459 41 q 526 -70 526 -24 q 506 -148 526 -116 q 454 -199 486 -179 q 317 -239 391 -239 q 196 -218 243 -239 q 117 -163 149 -198 q 47 14 47 -90 q 67 121 47 81 q 120 207 93 174 l 160 256 q 204 370 204 312 l 204 552 q 154 655 204 614 q 25 697 102 697 l 25 814 q 248 731 164 814 q 290 677 274 706 l 463 836 l 528 740 l 378 599 q 320 476 320 547 l 320 317 q 380 208 320 251 q 526 165 438 165 l 526 50 q 293 121 387 50 q 242 178 261 145 q 216 146 230 163 q 190 111 201 130 q 163 26 163 64 q 173 -38 163 -13 q 201 -81 182 -62 q 301 -123 241 -123 l 312 -123 z "},"y":{"ha":580,"x_min":31,"x_max":544,"o":"m 239 -115 q 286 -123 258 -123 q 339 -109 313 -123 q 385 -73 365 -95 q 429 35 429 -26 q 412 110 429 74 q 389 163 395 146 l 260 60 q 230 79 248 68 l 191 100 q 96 145 142 127 l 96 652 q 62 720 96 688 q 31 748 50 732 l 109 834 q 186 756 169 781 q 212 673 212 716 l 212 222 q 234 211 223 216 q 253 201 245 205 l 364 290 l 364 541 q 319 663 365 604 q 288 699 305 680 l 240 752 l 323 834 l 370 782 q 442 688 423 724 q 479 543 479 619 l 479 294 q 490 231 479 262 q 511 168 499 199 q 544 30 544 83 q 524 -72 544 -22 q 468 -159 503 -122 q 282 -239 391 -239 q 118 -192 189 -239 q 36 -47 36 -138 q 69 32 36 -1 q 149 65 102 65 q 229 33 195 65 q 262 -42 262 0 q 239 -115 262 -85 z "},"z":{"ha":517,"x_min":21,"x_max":511,"o":"m 21 703 l 188 835 q 311 762 275 797 q 366 692 348 727 q 384 623 384 656 q 376 566 384 589 q 358 519 369 543 q 308 436 336 473 q 342 464 321 448 q 452 543 422 525 l 511 443 q 429 389 450 404 l 388 359 q 353 332 368 345 q 423 230 405 276 q 453 56 453 152 q 395 -133 453 -41 q 296 -224 355 -197 q 227 -239 264 -239 q 157 -222 190 -239 q 100 -174 124 -205 q 47 3 47 -106 q 123 241 47 124 q 170 302 145 276 q 139 322 156 313 l 111 336 q 90 347 100 342 q 259 564 233 497 q 269 617 269 589 q 249 667 269 646 q 201 698 229 688 l 90 610 l 21 703 m 305 -64 q 312 -51 305 -64 q 329 -6 320 -38 q 338 56 338 26 q 334 112 338 85 q 321 165 330 140 q 269 249 302 219 q 170 71 195 175 q 162 5 162 37 q 168 -50 162 -26 q 182 -90 173 -73 q 225 -123 200 -123 q 270 -107 250 -123 q 305 -64 290 -90 z "},"{":{"ha":397,"x_min":-19,"x_max":351,"o":"m 249 585 q 206 443 249 492 q 249 302 249 388 l 249 48 q 264 -18 249 0 q 351 -49 291 -49 l 351 -164 q 142 -38 168 -164 q 134 48 134 1 l 134 302 q -19 448 134 372 q 127 555 108 505 q 134 585 134 570 l 134 854 q 174 1008 134 962 q 351 1063 223 1063 l 351 947 q 253 894 265 947 q 249 854 249 876 l 249 585 z "},"|":{"ha":315,"x_min":100,"x_max":215,"o":"m 100 1063 l 215 1063 l 215 -91 l 100 -91 l 100 1063 z "},"}":{"ha":397,"x_min":45,"x_max":416,"o":"m 191 443 q 148 585 148 492 l 148 854 q 133 918 148 902 q 45 947 106 947 l 45 1063 q 222 1008 174 1063 q 263 854 263 962 l 263 585 q 286 529 263 552 q 416 448 328 488 q 263 302 263 372 l 263 48 q 223 -105 263 -58 q 45 -164 173 -164 l 45 -49 q 144 9 132 -49 q 148 48 148 26 l 148 302 q 191 443 148 388 z "},"~":{"ha":629,"x_min":26,"x_max":615,"o":"m 26 798 q 227 976 93 976 q 335 939 277 976 q 378 913 357 924 q 416 901 398 901 q 445 910 433 901 q 469 933 457 919 q 491 966 480 947 l 514 1004 l 615 945 q 541 836 568 864 q 420 780 486 780 q 313 817 376 780 l 269 842 q 224 854 248 854 q 179 827 201 854 q 129 746 157 800 l 26 798 z "},"":{"ha":339,"x_min":0,"x_max":0,"o":""},"":{"ha":300,"x_min":88,"x_max":224,"o":"m 88 -239 l 88 541 l 204 541 l 204 -239 l 88 -239 m 109 870 l 224 863 l 204 596 l 88 604 l 109 870 z "},"":{"ha":507,"x_min":66,"x_max":464,"o":"m 362 633 l 281 780 l 241 751 q 182 622 182 711 l 182 296 q 207 229 182 260 q 273 179 231 197 l 382 262 l 464 181 l 347 92 l 347 -58 l 232 -58 l 232 73 q 77 225 113 118 q 66 296 66 259 l 66 622 q 91 750 66 696 q 174 846 115 804 l 232 886 l 232 1097 l 347 1097 l 347 896 l 456 688 l 362 633 z "},"":{"ha":1009,"x_min":54,"x_max":972,"o":"m 441 383 q 389 277 431 313 q 473 231 427 262 l 547 180 q 710 114 644 114 q 817 176 773 114 q 857 299 857 232 l 972 299 q 902 99 972 191 q 710 -2 825 -1 q 475 94 606 -1 q 345 170 396 151 q 259 189 293 189 q 201 152 201 189 q 211 126 201 136 q 237 115 222 115 l 237 0 q 130 44 174 0 q 85 153 85 89 q 132 260 85 218 q 251 304 179 304 q 307 331 286 304 q 324 383 324 353 l 54 383 l 54 495 l 309 495 q 279 559 297 526 q 243 628 260 593 q 201 777 201 714 q 224 891 201 840 q 283 981 245 943 q 483 1063 366 1063 q 682 980 600 1063 q 764 781 764 898 l 649 781 q 600 899 649 850 q 483 947 551 947 q 366 899 414 947 q 317 781 317 850 q 359 635 317 719 l 395 567 q 427 495 414 533 l 663 495 l 663 383 l 441 383 z "},"":{"ha":762,"x_min":51,"x_max":712,"o":"m 155 355 q 132 457 132 399 q 157 561 132 515 l 84 618 q 52 643 66 631 l 123 739 l 239 648 q 382 760 309 691 q 484 689 444 707 q 542 656 523 671 l 646 739 l 710 644 l 611 564 q 628 470 628 524 q 595 366 628 415 l 712 275 l 646 185 l 512 284 l 475 258 q 373 170 420 221 q 305 222 340 198 l 233 269 l 118 185 l 51 273 l 155 355 m 323 563 q 248 456 248 519 q 340 340 248 387 q 363 325 354 334 q 407 354 381 338 q 456 388 433 369 q 512 486 513 434 q 450 578 512 548 q 419 592 434 586 q 389 608 404 599 q 323 563 359 585 z "},"":{"ha":959,"x_min":50,"x_max":918,"o":"m 647 760 q 632 715 639 738 q 618 671 625 692 l 820 671 l 820 556 l 594 556 q 589 527 591 541 q 584 498 587 513 l 820 498 l 820 382 l 564 382 q 456 126 534 231 q 235 0 366 5 l 224 0 q 118 45 161 0 q 74 153 74 90 q 118 260 74 216 q 224 304 162 304 q 351 239 305 304 q 372 195 365 218 q 444 382 414 254 l 211 382 l 211 498 l 451 498 q 446 556 446 551 l 211 556 l 211 671 l 425 671 q 336 860 392 800 l 121 694 l 50 786 l 334 1006 q 523 716 471 915 q 747 1005 590 991 q 776 1006 755 1006 q 825 995 797 1006 q 873 962 853 983 q 918 856 918 919 q 874 747 918 791 q 760 703 829 703 q 647 760 691 703 m 766 891 q 758 891 766 891 q 740 880 751 891 q 730 854 730 869 q 740 828 730 839 q 766 818 751 818 q 792 828 781 818 q 803 854 803 839 q 792 880 803 869 q 766 891 781 891 m 225 189 q 218 189 225 189 q 200 178 210 189 q 189 152 189 167 q 199 126 189 136 q 224 115 210 116 l 231 115 q 253 128 244 117 q 262 153 262 138 q 252 178 262 167 q 225 189 241 189 z "},"":{"ha":319,"x_min":102,"x_max":217,"o":"m 217 925 l 217 388 l 102 388 l 102 925 l 217 925 m 217 277 l 217 -230 l 102 -230 l 102 277 l 217 277 z "},"":{"ha":623,"x_min":56,"x_max":568,"o":"m 149 227 q 69 388 69 318 q 121 513 69 452 q 157 551 138 532 q 64 743 87 635 q 56 824 56 780 q 75 912 56 867 q 127 990 95 957 q 300 1062 199 1062 q 474 977 402 1062 q 546 774 546 892 l 430 774 q 392 896 430 845 q 300 946 354 946 q 209 908 247 946 q 171 817 171 870 q 217 661 171 740 q 248 616 231 636 l 408 738 q 482 661 446 711 q 533 582 517 612 q 568 446 568 515 q 527 301 568 376 q 568 138 568 222 q 477 -79 568 26 q 271 -218 389 -183 q 193 -137 229 -173 q 128 -69 156 -102 q 68 70 68 1 q 90 154 68 117 q 149 227 112 190 m 445 194 q 273 96 370 127 l 226 144 q 195 108 206 124 q 183 74 183 92 q 194 38 183 56 q 222 -3 205 19 q 301 -87 255 -43 q 399 -12 371 -47 q 452 138 452 56 q 445 194 452 169 m 236 467 q 186 410 193 439 q 183 387 183 400 q 197 353 184 374 q 229 309 210 332 q 269 264 247 286 l 307 226 q 346 241 320 223 q 399 292 393 273 l 236 467 m 456 403 q 460 444 460 424 q 454 484 460 463 q 439 524 448 505 q 401 590 424 557 l 326 535 l 456 403 z "},"":{"ha":475,"x_min":34,"x_max":441,"o":"m 348 920 l 241 956 l 321 1147 l 441 1099 l 348 920 m 141 920 l 34 956 l 115 1147 l 235 1099 l 141 920 z "},"":{"ha":1027,"x_min":48,"x_max":979,"o":"m 48 486 q 85 666 48 582 q 184 814 121 751 q 332 913 248 877 q 513 950 417 950 q 694 913 610 950 q 842 814 779 877 q 942 666 905 751 q 979 486 979 582 q 942 304 979 389 q 842 157 905 220 q 694 57 779 94 q 513 20 610 20 q 332 57 417 20 q 184 157 248 94 q 85 304 121 220 q 48 486 48 389 m 163 486 q 191 350 163 414 q 266 239 218 286 q 513 136 369 136 q 760 239 659 136 q 863 486 863 342 q 760 732 863 630 q 513 835 658 835 q 266 732 369 835 q 163 486 163 631 m 502 155 q 309 386 309 211 l 309 485 q 328 601 309 562 q 418 709 359 668 l 563 811 l 699 552 l 605 496 l 524 644 l 484 615 q 425 485 425 572 l 425 386 q 479 286 425 315 l 617 393 l 685 298 l 502 155 z "},"":{"ha":507,"x_min":56,"x_max":465,"o":"m 377 492 q 465 358 377 425 l 399 264 q 308 344 332 313 l 219 279 q 70 378 109 301 q 56 444 56 406 l 56 517 q 155 729 56 661 l 308 834 l 377 798 l 377 492 m 172 444 q 193 406 172 418 l 262 456 l 262 665 l 229 640 q 172 517 172 597 l 172 444 z "},"":{"ha":574,"x_min":27,"x_max":526,"o":"m 419 38 l 241 349 l 426 662 l 526 604 l 375 349 q 521 94 375 349 l 419 38 m 205 38 l 27 349 l 212 662 l 313 604 l 161 349 l 307 94 l 205 38 z "},"":{"ha":739,"x_min":49,"x_max":656,"o":"m 656 767 l 656 414 l 541 414 l 541 659 l 49 659 l 49 767 l 656 767 z "},"":{"ha":527,"x_min":73,"x_max":455,"o":"m 73 445 l 455 541 l 455 422 l 73 326 l 73 445 z "},"":{"ha":1027,"x_min":48,"x_max":979,"o":"m 48 486 q 85 666 48 582 q 184 814 121 751 q 332 913 248 877 q 513 950 417 950 q 694 913 610 950 q 842 814 779 877 q 942 666 905 751 q 979 486 979 582 q 942 304 979 389 q 842 157 905 220 q 694 57 779 94 q 513 20 610 20 q 332 57 417 20 q 184 157 248 94 q 85 304 121 220 q 48 486 48 389 m 389 766 q 488 675 467 713 l 603 793 q 744 568 695 694 l 647 492 q 594 620 616 584 l 515 538 l 515 136 q 761 239 659 137 q 863 486 863 342 q 815 661 863 578 q 606 822 745 782 q 503 835 562 835 q 381 808 444 835 q 269 735 317 782 q 163 486 163 632 q 231 281 164 372 q 400 155 297 191 l 400 566 q 326 669 400 619 l 389 766 z "},"":{"ha":609,"x_min":34,"x_max":575,"o":"m 575 1059 l 575 951 l 34 951 l 34 1059 l 575 1059 z "},"":{"ha":377,"x_min":27,"x_max":351,"o":"m 27 1016 q 74 1131 27 1084 q 189 1178 121 1178 q 304 1131 256 1179 q 351 1016 351 1084 q 304 901 351 948 q 189 854 256 853 q 74 901 121 854 q 27 1016 27 948 m 189 1063 q 179 1063 189 1063 q 156 1049 170 1063 q 142 1016 142 1035 q 156 983 142 996 q 189 970 170 970 q 222 983 208 970 q 236 1016 236 996 q 222 1049 236 1035 q 189 1063 208 1063 z "},"":{"ha":726,"x_min":57,"x_max":670,"o":"m 302 568 l 302 814 l 418 814 l 418 568 l 665 568 l 665 452 l 418 452 l 418 207 l 302 207 l 302 452 l 57 452 l 57 568 l 302 568 m 61 0 l 61 109 l 670 109 l 670 0 l 61 0 z "},"":{"ha":600,"x_min":64,"x_max":546,"o":"m 236 941 q 267 869 267 911 q 205 774 267 802 q 166 766 187 766 q 94 796 125 766 q 64 868 64 825 q 81 945 64 910 q 129 1006 98 981 q 304 1063 196 1062 q 510 956 454 1062 q 529 875 529 921 q 513 797 529 829 q 470 738 496 764 q 410 689 444 711 l 342 646 q 260 592 299 621 q 201 528 221 563 q 251 522 227 526 l 354 504 q 412 499 381 499 q 427 514 427 499 q 419 525 427 520 q 399 530 410 530 l 399 646 q 503 608 460 646 q 546 514 547 570 q 507 420 547 460 q 412 382 469 382 q 338 391 379 382 q 203 412 244 410 l 215 382 l 87 382 l 79 414 q 69 486 69 448 q 87 563 69 524 q 136 632 106 602 q 202 686 165 662 l 328 763 q 397 823 382 797 q 413 872 413 850 q 300 947 413 947 q 236 941 256 947 z "},"":{"ha":602,"x_min":52,"x_max":551,"o":"m 463 742 q 551 593 551 671 q 477 444 551 505 q 297 383 404 383 q 122 434 189 384 q 52 577 52 487 q 81 648 52 617 q 142 679 111 678 q 192 671 174 679 q 225 649 211 663 q 256 582 256 620 q 228 513 256 544 q 287 505 250 505 q 347 510 323 505 q 391 528 372 517 q 434 587 434 553 q 415 643 434 621 q 353 687 396 664 q 329 682 343 685 l 271 668 q 248 663 258 665 l 229 754 q 370 802 323 773 q 418 870 418 831 q 389 931 418 909 q 323 952 359 952 q 239 942 269 952 q 267 883 267 913 q 258 834 267 852 q 236 802 250 815 q 165 772 205 772 q 93 802 123 772 q 63 876 63 831 q 82 955 63 920 q 133 1015 100 990 q 310 1063 199 1063 q 475 1007 412 1063 q 535 875 535 954 q 495 770 534 811 q 463 742 481 756 z "},"":{"ha":383,"x_min":34,"x_max":349,"o":"m 95 881 l 34 977 l 271 1149 l 349 1042 l 95 881 z "},"":{"ha":634,"x_min":43,"x_max":590,"o":"m 107 371 q 114 420 107 371 q 126 525 120 469 q 132 642 132 581 q 43 772 132 703 l 113 864 q 240 694 220 781 q 247 622 247 667 q 243 530 247 577 q 232 444 237 484 q 217 302 217 342 q 223 242 218 262 q 237 203 229 222 q 279 132 253 170 l 400 235 l 400 833 l 515 833 l 515 181 q 590 77 515 124 l 526 -20 q 414 99 439 33 l 274 -20 l 208 86 q 332 -142 208 -36 l 257 -231 q 125 -44 160 -149 q 95 219 95 45 q 107 371 95 273 z "},"":{"ha":1085,"x_min":47,"x_max":1042,"o":"m 940 243 q 931 82 940 134 q 907 -11 922 31 q 864 -90 891 -54 q 691 -203 804 -171 l 662 -92 q 823 180 817 -47 q 825 243 825 214 l 825 926 l 661 926 l 661 0 l 545 0 l 545 926 l 500 926 q 187 804 262 926 q 162 712 161 762 q 177 630 162 661 q 216 575 192 598 q 272 535 241 552 q 336 501 303 517 q 400 467 369 485 q 456 426 431 450 q 510 291 510 373 q 434 146 510 199 q 269 101 368 100 l 269 217 q 383 256 353 217 q 394 293 394 271 q 379 332 394 315 q 340 363 364 349 q 284 392 315 378 q 220 423 253 406 q 157 464 188 441 q 101 521 125 488 q 47 694 47 595 q 81 858 47 794 q 176 962 115 921 q 500 1042 293 1042 l 1042 1042 l 1042 926 l 940 926 l 940 243 z "},"":{"ha":273,"x_min":69,"x_max":205,"o":"m 184 498 l 69 506 l 89 772 l 205 765 l 184 498 z "},"":{"ha":365,"x_min":34,"x_max":331,"o":"m 193 -92 q 246 -188 246 -125 q 190 -279 246 -244 q 58 -313 136 -313 l 58 -197 q 117 -190 110 -197 q 125 -174 125 -183 q 107 -155 125 -158 q 56 -153 90 -153 l 34 -72 l 184 16 l 331 16 l 193 -92 z "},"":{"ha":349,"x_min":16,"x_max":274,"o":"m 104 438 q 157 627 157 527 l 157 882 q 121 821 130 855 l 16 878 q 81 969 36 934 l 205 1063 l 274 1027 l 274 640 q 211 382 274 491 l 104 438 z "},"":{"ha":435,"x_min":68,"x_max":390,"o":"m 241 834 q 390 620 390 736 l 390 558 q 378 480 389 507 q 306 395 358 433 l 147 279 l 68 318 l 68 587 q 152 766 68 703 l 241 834 m 220 673 q 184 587 184 644 l 184 446 l 238 485 q 275 558 275 511 l 275 620 q 243 690 275 659 l 220 673 z "},"":{"ha":581,"x_min":47,"x_max":553,"o":"m 274 95 l 419 349 l 268 604 l 368 662 l 553 349 l 376 39 l 274 95 m 54 95 l 199 349 l 47 604 l 148 662 l 333 349 l 155 39 l 54 95 z "},"":{"ha":1119,"x_min":39,"x_max":1077,"o":"m 797 862 l 229 -33 l 136 31 l 705 930 l 797 862 m 127 338 q 179 527 179 427 l 179 782 q 143 721 153 755 l 39 778 q 103 869 58 834 l 228 963 l 296 928 l 296 540 q 233 283 296 391 l 127 338 m 587 267 q 650 418 587 341 l 867 677 q 1000 492 1000 622 l 1000 313 l 1077 313 l 1077 200 l 1000 200 q 865 -11 1000 54 l 792 81 q 882 200 882 127 l 587 200 l 587 267 m 717 313 l 882 313 l 882 515 l 717 313 z "},"":{"ha":1236,"x_min":37,"x_max":1179,"o":"m 830 862 l 262 -33 l 169 31 l 739 930 l 830 862 m 125 338 q 178 527 178 427 l 178 782 q 142 721 151 755 l 37 778 q 102 869 57 834 l 227 963 l 295 928 l 295 540 q 232 283 295 391 l 125 338 m 869 559 q 900 487 900 530 q 838 393 900 420 q 799 385 820 385 q 727 414 758 385 q 697 486 697 444 q 713 564 696 528 q 762 625 730 600 q 937 681 829 681 q 1143 575 1088 681 q 1162 494 1162 540 q 1145 415 1162 448 q 1103 356 1129 382 q 1043 308 1076 330 l 975 264 q 893 210 932 239 q 834 146 854 181 q 884 141 860 145 l 987 122 q 1044 117 1015 117 q 1060 132 1060 117 q 1052 143 1060 138 q 1031 148 1043 148 l 1032 264 q 1135 226 1092 264 q 1179 132 1179 188 q 1139 39 1179 79 q 1045 1 1101 1 q 971 9 1012 1 q 836 30 877 29 l 848 1 l 720 1 l 711 33 q 702 104 701 66 q 720 181 702 142 q 768 250 739 220 q 834 304 798 280 l 960 381 q 1030 441 1015 415 q 1046 490 1046 468 q 933 566 1046 566 q 869 559 889 566 z "},"":{"ha":1362,"x_min":56,"x_max":1321,"o":"m 1029 862 l 461 -33 l 368 31 l 937 930 l 1029 862 m 467 648 q 555 498 555 577 q 481 350 555 411 q 301 289 408 289 q 126 339 193 289 q 56 483 56 392 q 85 555 56 524 q 146 585 115 585 q 196 576 178 585 q 229 555 215 568 q 260 488 260 526 q 232 418 260 450 q 291 410 254 410 q 352 416 327 410 q 395 433 376 422 q 438 492 438 458 q 419 548 438 527 q 357 593 400 570 q 333 587 347 591 l 275 574 q 252 568 262 570 l 233 660 q 374 708 327 679 q 422 776 422 736 q 393 837 422 815 q 327 858 363 858 q 243 848 273 858 q 271 789 271 819 q 262 739 271 758 q 240 707 254 721 q 169 677 210 677 q 97 707 127 677 q 67 781 67 737 q 85 861 67 825 q 137 920 104 895 q 314 968 203 968 q 479 913 416 968 q 539 781 539 860 q 499 676 538 717 q 467 648 486 662 m 831 267 q 895 418 831 341 l 1111 677 q 1244 492 1244 622 l 1244 313 l 1321 313 l 1321 200 l 1244 200 q 1109 -11 1244 54 l 1036 81 q 1126 200 1126 127 l 831 200 l 831 267 m 961 313 l 1126 313 l 1126 515 l 961 313 z "},"":{"ha":587,"x_min":37,"x_max":548,"o":"m 239 870 l 355 863 l 334 596 l 218 604 l 239 870 m 432 -20 q 366 41 432 41 l 366 156 q 534 58 491 156 q 548 -18 548 26 q 529 -102 548 -62 q 477 -172 511 -141 q 293 -239 404 -239 q 109 -169 181 -239 q 37 1 37 -100 q 163 213 37 132 q 228 252 198 236 l 280 281 q 343 332 329 309 q 357 373 357 355 q 352 404 357 391 q 336 428 346 418 q 283 450 314 450 q 236 434 252 450 q 208 375 209 407 l 96 375 q 151 509 96 453 q 285 564 207 564 q 418 509 363 564 q 473 376 473 454 q 355 190 473 262 q 292 154 321 170 q 239 123 263 139 q 195 90 214 109 q 153 1 153 47 q 191 -85 153 -50 q 293 -123 231 -123 q 395 -91 354 -123 q 432 -20 433 -61 z "},"":{"ha":1054,"x_min":46,"x_max":1004,"o":"m 374 945 q 218 854 218 945 q 266 758 218 808 q 309 716 286 737 q 353 669 332 694 q 399 537 400 608 q 355 428 399 473 q 246 384 311 384 q 140 429 183 384 q 96 537 96 473 q 156 658 96 612 q 197 680 174 671 q 134 739 151 713 q 100 844 100 789 q 115 937 100 899 q 164 1004 132 976 q 374 1063 234 1063 q 680 909 601 1062 q 707 792 707 854 q 697 685 707 730 q 670 600 687 641 q 631 521 653 559 l 587 447 l 629 404 l 728 473 l 728 791 q 810 987 728 909 q 1004 1063 888 1063 l 1004 945 q 878 886 918 945 q 843 747 842 834 l 843 270 q 932 119 842 189 q 990 77 959 98 l 922 -20 q 793 88 827 44 q 728 267 728 173 l 728 336 l 621 258 l 517 352 q 227 52 385 186 q 133 -20 176 9 l 46 60 q 414 399 260 214 q 593 775 593 614 q 469 932 593 892 q 374 945 429 945 m 452 1246 l 531 1353 l 767 1181 l 705 1084 l 452 1246 m 247 572 q 240 572 247 572 q 221 562 232 572 q 211 535 211 551 q 221 510 211 520 q 247 499 232 499 q 273 510 262 499 q 284 535 284 520 q 273 562 284 551 q 247 572 262 572 z "},"":{"ha":1054,"x_min":46,"x_max":1004,"o":"m 374 945 q 218 854 218 945 q 266 758 218 808 q 309 716 286 737 q 353 669 332 694 q 399 537 400 608 q 355 428 399 473 q 246 384 311 384 q 140 429 183 384 q 96 537 96 473 q 156 658 96 612 q 197 680 174 671 q 134 739 151 713 q 100 844 100 789 q 115 937 100 899 q 164 1004 132 976 q 374 1063 234 1063 q 680 909 601 1062 q 707 792 707 854 q 697 685 707 730 q 670 600 687 641 q 631 521 653 559 l 587 447 l 629 404 l 728 473 l 728 791 q 810 987 728 909 q 1004 1063 888 1063 l 1004 945 q 878 886 918 945 q 843 747 842 834 l 843 270 q 932 119 842 189 q 990 77 959 98 l 922 -20 q 793 88 827 44 q 728 267 728 173 l 728 336 l 621 258 l 517 352 q 227 52 385 186 q 133 -20 176 9 l 46 60 q 414 399 260 214 q 593 775 593 614 q 469 932 593 892 q 374 945 429 945 m 727 1084 l 666 1181 l 903 1353 l 981 1246 l 727 1084 m 247 572 q 240 572 247 572 q 221 562 232 572 q 211 535 211 551 q 221 510 211 520 q 247 499 232 499 q 273 510 262 499 q 284 535 284 520 q 273 562 284 551 q 247 572 262 572 z "},"":{"ha":1054,"x_min":46,"x_max":1004,"o":"m 374 945 q 218 854 218 945 q 266 758 218 808 q 309 716 286 737 q 353 669 332 694 q 399 537 400 608 q 355 428 399 473 q 246 384 311 384 q 140 429 183 384 q 96 537 96 473 q 156 658 96 612 q 197 680 174 671 q 134 739 151 713 q 100 844 100 789 q 115 937 100 899 q 164 1004 132 976 q 374 1063 234 1063 q 680 909 601 1062 q 707 792 707 854 q 697 685 707 730 q 670 600 687 641 q 631 521 653 559 l 587 447 l 629 404 l 728 473 l 728 791 q 810 987 728 909 q 1004 1063 888 1063 l 1004 945 q 878 886 918 945 q 843 747 842 834 l 843 270 q 932 119 842 189 q 990 77 959 98 l 922 -20 q 793 88 827 44 q 728 267 728 173 l 728 336 l 621 258 l 517 352 q 227 52 385 186 q 133 -20 176 9 l 46 60 q 414 399 260 214 q 593 775 593 614 q 469 932 593 892 q 374 945 429 945 m 478 1183 l 723 1354 l 959 1183 l 889 1091 l 723 1214 q 674 1177 704 1198 l 548 1091 l 478 1183 m 247 572 q 240 572 247 572 q 221 562 232 572 q 211 535 211 551 q 221 510 211 520 q 247 499 232 499 q 273 510 262 499 q 284 535 284 520 q 273 562 284 551 q 247 572 262 572 z "},"":{"ha":1054,"x_min":46,"x_max":1004,"o":"m 374 945 q 218 854 218 945 q 266 758 218 808 q 309 716 286 737 q 353 669 332 694 q 399 537 400 608 q 355 428 399 473 q 246 384 311 384 q 140 429 183 384 q 96 537 96 473 q 156 658 96 612 q 197 680 174 671 q 134 739 151 713 q 100 844 100 789 q 115 937 100 899 q 164 1004 132 976 q 374 1063 234 1063 q 680 909 601 1062 q 707 792 707 854 q 697 685 707 730 q 670 600 687 641 q 631 521 653 559 l 587 447 l 629 404 l 728 473 l 728 791 q 810 987 728 909 q 1004 1063 888 1063 l 1004 945 q 878 886 918 945 q 843 747 842 834 l 843 270 q 932 119 842 189 q 990 77 959 98 l 922 -20 q 793 88 827 44 q 728 267 728 173 l 728 336 l 621 258 l 517 352 q 227 52 385 186 q 133 -20 176 9 l 46 60 q 414 399 260 214 q 593 775 593 614 q 469 932 593 892 q 374 945 429 945 m 643 1197 q 535 1101 585 1197 l 434 1158 q 572 1301 492 1267 q 627 1313 600 1313 q 676 1299 654 1313 q 718 1270 699 1286 l 753 1240 q 785 1226 770 1226 q 814 1234 801 1226 q 841 1257 828 1244 q 888 1326 866 1284 l 989 1270 q 852 1124 932 1166 q 800 1110 826 1110 q 751 1124 774 1110 q 709 1154 728 1137 l 674 1183 q 643 1197 659 1197 m 247 572 q 240 572 247 572 q 221 562 232 572 q 211 535 211 551 q 221 510 211 520 q 247 499 232 499 q 273 510 262 499 q 284 535 284 520 q 273 562 284 551 q 247 572 262 572 z "},"":{"ha":1054,"x_min":46,"x_max":1004,"o":"m 374 945 q 218 854 218 945 q 266 758 218 808 q 309 716 286 737 q 353 669 332 694 q 399 537 400 608 q 355 428 399 473 q 246 384 311 384 q 140 429 183 384 q 96 537 96 473 q 156 658 96 612 q 197 680 174 671 q 134 739 151 713 q 100 844 100 789 q 115 937 100 899 q 164 1004 132 976 q 374 1063 234 1063 q 680 909 601 1062 q 707 792 707 854 q 697 685 707 730 q 670 600 687 641 q 631 521 653 559 l 587 447 l 629 404 l 728 473 l 728 791 q 810 987 728 909 q 1004 1063 888 1063 l 1004 945 q 878 886 918 945 q 843 747 842 834 l 843 270 q 932 119 842 189 q 990 77 959 98 l 922 -20 q 793 88 827 44 q 728 267 728 173 l 728 336 l 621 258 l 517 352 q 227 52 385 186 q 133 -20 176 9 l 46 60 q 414 399 260 214 q 593 775 593 614 q 469 932 593 892 q 374 945 429 945 m 654 1124 l 547 1160 l 627 1351 l 747 1303 l 654 1124 m 861 1124 l 753 1160 l 833 1351 l 954 1303 l 861 1124 m 247 572 q 240 572 247 572 q 221 562 232 572 q 211 535 211 551 q 221 510 211 520 q 247 499 232 499 q 273 510 262 499 q 284 535 284 520 q 273 562 284 551 q 247 572 262 572 z "},"":{"ha":1054,"x_min":46,"x_max":1004,"o":"m 374 945 q 218 854 218 945 q 266 758 218 808 q 309 716 286 737 q 353 669 332 694 q 399 537 400 608 q 355 428 399 473 q 246 384 311 384 q 140 429 183 384 q 96 537 96 473 q 156 658 96 612 q 197 680 174 671 q 134 739 151 713 q 100 844 100 789 q 115 937 100 899 q 164 1004 132 976 q 374 1063 234 1063 q 680 909 601 1062 q 707 792 707 854 q 697 685 707 730 q 670 600 687 641 q 631 521 653 559 l 587 447 l 629 404 l 728 473 l 728 791 q 810 987 728 909 q 1004 1063 888 1063 l 1004 945 q 878 886 918 945 q 843 747 842 834 l 843 270 q 932 119 842 189 q 990 77 959 98 l 922 -20 q 793 88 827 44 q 728 267 728 173 l 728 336 l 621 258 l 517 352 q 227 52 385 186 q 133 -20 176 9 l 46 60 q 414 399 260 214 q 593 775 593 614 q 469 932 593 892 q 374 945 429 945 m 572 1219 q 614 1322 572 1279 q 717 1365 655 1364 q 821 1322 779 1364 q 863 1219 863 1279 q 821 1116 863 1160 q 717 1074 779 1074 q 614 1116 655 1074 q 572 1219 572 1160 m 719 1266 q 709 1266 719 1266 q 686 1252 699 1266 q 672 1219 672 1238 q 686 1186 672 1200 q 719 1173 699 1173 q 752 1186 738 1173 q 766 1219 766 1200 q 752 1252 766 1238 q 719 1266 738 1266 m 247 572 q 240 572 247 572 q 221 562 232 572 q 211 535 211 551 q 221 510 211 520 q 247 499 232 499 q 273 510 262 499 q 284 535 284 520 q 273 562 284 551 q 247 572 262 572 z "},"":{"ha":1682,"x_min":43,"x_max":1635,"o":"m 1160 -1 q 726 337 747 -1 l 618 258 l 515 352 q 224 52 382 186 q 130 -20 174 9 l 43 60 q 411 399 258 214 q 590 775 590 614 q 467 932 590 892 q 380 945 426 945 q 303 938 334 945 q 252 918 273 930 q 210 857 210 892 q 225 797 210 821 q 263 754 240 774 q 312 715 286 734 q 362 673 339 696 q 415 548 415 618 q 370 441 415 484 q 263 397 326 397 q 156 441 200 397 q 112 538 112 484 q 194 683 112 640 q 128 745 147 720 q 92 848 92 795 q 111 940 92 900 q 167 1006 130 979 q 372 1063 241 1062 q 677 909 598 1062 q 704 792 704 854 q 694 685 705 730 q 667 600 684 641 q 629 521 650 559 l 585 447 l 627 404 l 725 473 l 725 791 q 807 987 726 909 q 1001 1063 886 1063 q 1121 1011 1080 1063 l 1190 1097 q 1289 909 1234 959 q 1331 891 1309 891 q 1369 902 1352 891 q 1396 933 1385 913 q 1420 1042 1420 975 l 1538 1042 q 1484 849 1538 922 q 1324 772 1427 772 q 1156 865 1222 772 l 1107 805 q 1086 762 1086 779 q 1095 731 1086 744 q 1116 708 1103 719 q 1148 686 1131 697 l 1221 645 q 1256 623 1238 635 q 1305 696 1280 675 q 1403 733 1349 733 q 1500 694 1454 733 l 1500 767 l 1615 767 q 1603 640 1615 673 q 1570 589 1590 606 q 1519 572 1549 572 q 1477 578 1490 572 q 1455 593 1465 585 l 1438 608 q 1417 615 1430 615 q 1393 608 1404 615 q 1375 589 1383 601 q 1348 532 1362 571 q 1381 423 1381 479 q 1364 330 1381 368 q 1320 263 1348 292 q 1173 203 1258 202 q 1026 263 1086 203 q 965 410 965 324 q 1000 526 965 473 l 1094 456 q 1082 414 1082 436 q 1089 375 1082 391 q 1108 347 1096 359 q 1172 320 1135 320 q 1236 347 1210 320 q 1263 405 1263 373 q 1251 459 1263 437 q 1219 500 1238 481 q 1175 533 1199 518 l 1128 562 q 1023 632 1051 604 q 968 758 968 689 q 1016 880 968 825 q 1034 918 1034 902 q 995 945 1034 945 q 925 929 956 945 q 875 886 894 913 q 840 747 840 834 l 840 399 q 1162 117 840 117 q 1400 213 1299 117 q 1525 412 1476 286 l 1635 368 q 1473 120 1577 218 q 1160 -1 1344 -1 m 215 547 q 229 512 215 526 q 264 498 243 498 q 299 512 284 498 q 313 547 313 526 q 299 582 313 567 q 264 596 284 596 q 229 582 243 596 q 215 547 215 567 z "},"":{"ha":1061,"x_min":61,"x_max":1018,"o":"m 498 -92 q 551 -188 551 -125 q 494 -279 551 -244 q 363 -313 441 -313 l 363 -197 q 422 -190 414 -197 q 429 -174 429 -183 q 412 -155 429 -158 q 361 -153 395 -153 l 338 -72 l 467 4 q 156 174 262 27 q 61 514 61 307 q 205 916 61 762 q 529 1063 341 1063 q 680 1035 608 1063 q 724 1010 705 1025 q 815 890 754 890 q 902 1012 876 890 l 1018 989 q 879 783 982 821 q 816 772 848 772 q 715 823 753 772 q 633 696 706 755 q 567 647 602 670 q 502 600 532 625 q 434 482 434 544 q 518 387 434 414 q 593 378 549 378 l 593 260 q 376 332 450 260 q 315 482 315 391 q 407 674 316 593 q 460 718 433 697 l 513 755 q 604 876 604 819 l 604 938 q 565 943 586 941 l 529 944 q 290 826 392 940 q 194 636 222 750 q 180 501 180 579 q 203 349 180 422 q 274 225 228 277 q 544 119 370 119 q 843 266 722 118 q 907 372 887 319 l 1017 328 q 888 141 975 225 q 623 6 774 30 l 498 -92 z "},"":{"ha":1038,"x_min":66,"x_max":991,"o":"m 704 532 q 736 423 736 479 q 720 330 736 368 q 675 263 704 292 q 528 203 614 202 q 381 263 442 203 q 321 410 321 324 q 356 526 321 473 l 450 456 q 437 414 437 436 q 445 375 437 391 q 464 347 452 359 q 528 320 490 320 q 592 347 566 320 q 618 405 618 373 q 606 459 618 437 q 574 500 594 481 q 530 533 555 518 l 484 562 q 379 632 407 604 q 323 758 323 689 q 372 880 323 825 q 390 918 390 902 q 358 945 390 945 q 295 919 326 945 q 239 842 264 894 q 184 526 184 726 q 291 216 184 327 q 530 117 385 117 q 758 213 659 117 q 881 412 833 286 l 991 368 q 831 120 935 218 q 530 -1 705 -1 q 210 126 339 0 q 66 526 66 268 q 159 931 66 782 q 252 1030 200 998 q 357 1063 304 1063 q 477 1011 436 1063 l 540 1089 l 296 1246 l 375 1353 l 611 1181 l 549 1084 q 687 891 615 891 q 752 933 728 891 q 776 1042 776 975 l 894 1042 q 840 849 894 922 q 680 772 783 772 q 511 865 578 772 l 463 805 q 442 762 442 779 q 450 731 442 744 q 472 708 458 719 q 504 686 486 697 l 576 645 q 612 623 594 635 q 661 696 636 675 q 759 733 705 733 q 856 694 810 733 l 856 767 l 971 767 q 959 640 971 673 q 925 589 946 606 q 875 572 905 572 q 833 578 846 572 q 811 593 821 585 l 793 608 q 772 615 785 615 q 749 608 760 615 q 730 589 739 601 q 704 532 718 571 z "},"":{"ha":1038,"x_min":66,"x_max":991,"o":"m 357 1063 q 477 1011 436 1063 l 541 1090 l 484 1181 l 720 1353 l 799 1246 l 549 1087 q 646 909 591 956 q 687 891 666 891 q 724 902 708 891 q 752 933 741 913 q 776 1042 776 975 l 894 1042 q 840 849 894 922 q 680 772 783 772 q 511 865 578 772 l 463 805 q 442 762 442 779 q 450 731 442 744 q 472 708 458 719 q 504 686 486 697 l 576 645 q 612 623 594 635 q 661 696 636 675 q 759 733 705 733 q 856 694 810 733 l 856 767 l 971 767 q 959 640 971 673 q 925 589 946 606 q 875 572 905 572 q 833 578 846 572 q 811 593 821 585 l 793 608 q 772 615 785 615 q 749 608 760 615 q 730 589 739 601 q 704 532 718 571 q 736 423 736 479 q 720 330 736 368 q 675 263 704 292 q 528 203 614 202 q 381 263 442 203 q 321 410 321 324 q 356 526 321 473 l 450 456 q 437 414 437 436 q 445 375 437 391 q 464 347 452 359 q 528 320 490 320 q 592 347 566 320 q 618 405 618 373 q 606 459 618 437 q 574 500 594 481 q 530 533 555 518 l 484 562 q 379 632 407 604 q 323 758 323 689 q 372 880 323 825 q 390 918 390 902 q 358 945 390 945 q 295 919 326 945 q 239 842 264 894 q 184 526 184 726 q 291 216 184 327 q 530 117 385 117 q 758 213 659 117 q 881 412 833 286 l 991 368 q 831 120 935 218 q 530 -1 705 -1 q 210 126 339 0 q 66 526 66 268 q 159 931 66 782 q 252 1030 200 998 q 357 1063 304 1063 z "},"":{"ha":1038,"x_min":66,"x_max":991,"o":"m 704 532 q 736 423 736 479 q 720 330 736 368 q 675 263 704 292 q 528 203 614 202 q 381 263 442 203 q 321 410 321 324 q 356 526 321 473 l 450 456 q 437 414 437 436 q 445 375 437 391 q 464 347 452 359 q 528 320 490 320 q 592 347 566 320 q 618 405 618 373 q 606 459 618 437 q 574 500 594 481 q 530 533 555 518 l 484 562 q 379 632 407 604 q 323 758 323 689 q 372 880 323 825 q 390 918 390 902 q 358 945 390 945 q 295 919 326 945 q 239 842 264 894 q 184 526 184 726 q 291 216 184 327 q 530 117 385 117 q 758 213 659 117 q 881 412 833 286 l 991 368 q 831 120 935 218 q 530 -1 705 -1 q 210 126 339 0 q 66 526 66 268 q 159 931 66 782 q 252 1030 200 998 q 357 1063 304 1063 q 477 1011 436 1063 l 546 1097 q 644 909 589 959 q 686 891 665 891 q 724 902 708 891 q 752 933 741 913 q 776 1042 776 975 l 894 1042 q 840 849 894 922 q 680 772 783 772 q 511 865 578 772 l 463 805 q 442 762 442 779 q 450 731 442 744 q 472 708 458 719 q 504 686 486 697 l 576 645 q 612 623 594 635 q 661 696 636 675 q 759 733 705 733 q 856 694 810 733 l 856 767 l 971 767 q 959 640 971 673 q 925 589 946 606 q 875 572 905 572 q 833 578 846 572 q 811 593 821 585 l 793 608 q 772 615 785 615 q 749 608 760 615 q 730 589 739 601 q 704 532 718 571 m 338 1183 l 583 1354 l 819 1183 l 749 1091 l 583 1214 q 533 1177 563 1198 l 408 1091 l 338 1183 z "},"":{"ha":1038,"x_min":66,"x_max":991,"o":"m 704 532 q 736 423 736 479 q 720 330 736 368 q 675 263 704 292 q 528 203 614 202 q 381 263 442 203 q 321 410 321 324 q 356 526 321 473 l 450 456 q 437 414 437 436 q 445 375 437 391 q 464 347 452 359 q 528 320 490 320 q 592 347 566 320 q 618 405 618 373 q 606 459 618 437 q 574 500 594 481 q 530 533 555 518 l 484 562 q 379 632 407 604 q 323 758 323 689 q 372 880 323 825 q 390 918 390 902 q 358 945 390 945 q 295 919 326 945 q 239 842 264 894 q 184 526 184 726 q 291 216 184 327 q 530 117 385 117 q 758 213 659 117 q 881 412 833 286 l 991 368 q 831 120 935 218 q 530 -1 705 -1 q 210 126 339 0 q 66 526 66 268 q 159 931 66 782 q 252 1030 200 998 q 357 1063 304 1063 q 477 1011 436 1063 l 546 1097 q 644 909 589 959 q 686 891 665 891 q 724 902 708 891 q 752 933 741 913 q 776 1042 776 975 l 894 1042 q 840 849 894 922 q 680 772 783 772 q 511 865 578 772 l 463 805 q 442 762 442 779 q 450 731 442 744 q 472 708 458 719 q 504 686 486 697 l 576 645 q 612 623 594 635 q 661 696 636 675 q 759 733 705 733 q 856 694 810 733 l 856 767 l 971 767 q 959 640 971 673 q 925 589 946 606 q 875 572 905 572 q 833 578 846 572 q 811 593 821 585 l 793 608 q 772 615 785 615 q 749 608 760 615 q 730 589 739 601 q 704 532 718 571 m 692 1124 l 585 1160 l 665 1351 l 785 1303 l 692 1124 m 486 1124 l 378 1160 l 459 1351 l 579 1303 l 486 1124 z "},"":{"ha":1114,"x_min":65,"x_max":1055,"o":"m 972 764 q 954 751 972 764 q 890 726 936 739 q 789 713 844 713 q 668 741 734 713 l 562 656 q 598 590 577 621 l 684 465 q 759 241 759 353 q 727 122 759 175 q 749 119 736 119 l 770 118 q 795 118 779 118 q 838 129 812 117 q 883 159 864 140 q 925 259 925 201 q 883 359 925 317 q 782 401 841 401 l 782 519 q 966 443 890 519 q 1042 259 1042 367 q 966 75 1042 151 q 782 -1 889 -1 q 513 106 650 -1 q 378 193 429 172 q 292 214 328 214 q 236 207 255 214 q 206 190 218 199 q 184 154 184 172 q 194 126 184 136 q 219 115 203 115 l 219 0 q 113 45 156 0 q 68 153 68 90 q 119 274 68 224 q 281 332 179 332 q 551 231 421 331 l 622 177 q 641 248 641 206 q 626 327 641 290 q 589 398 611 365 q 540 463 566 431 q 491 530 513 494 q 439 710 439 614 l 559 805 q 510 844 537 821 q 454 890 484 868 q 341 945 383 945 q 271 930 299 945 q 224 895 243 917 q 183 808 183 850 q 197 739 184 765 q 235 696 210 713 q 363 661 283 661 l 363 543 q 149 608 229 543 q 65 799 65 676 q 138 975 65 895 q 334 1063 218 1063 q 567 955 445 1063 q 689 862 644 886 q 772 832 733 837 q 751 905 751 868 q 764 970 751 942 q 795 1019 775 998 q 903 1063 839 1063 q 1010 1018 966 1063 q 1055 918 1055 974 q 1032 826 1055 863 q 972 764 1009 789 m 902 947 q 895 947 902 947 q 877 937 887 947 q 866 910 866 926 q 877 885 866 895 q 902 874 887 874 q 928 885 918 874 q 939 910 939 895 q 928 937 939 926 q 902 947 918 947 m 371 1272 l 450 1379 l 686 1206 l 624 1109 l 371 1272 z "},"":{"ha":1114,"x_min":65,"x_max":1055,"o":"m 972 764 q 954 751 972 764 q 890 726 936 739 q 789 713 844 713 q 668 741 734 713 l 562 656 q 598 590 577 621 l 684 465 q 759 241 759 353 q 727 122 759 175 q 749 119 736 119 l 770 118 q 795 118 779 118 q 838 129 812 117 q 883 159 864 140 q 925 259 925 201 q 883 359 925 317 q 782 401 841 401 l 782 519 q 966 443 890 519 q 1042 259 1042 367 q 966 75 1042 151 q 782 -1 889 -1 q 513 106 650 -1 q 378 193 429 172 q 292 214 328 214 q 236 207 255 214 q 206 190 218 199 q 184 154 184 172 q 194 126 184 136 q 219 115 203 115 l 219 0 q 113 45 156 0 q 68 153 68 90 q 119 274 68 224 q 281 332 179 332 q 551 231 421 331 l 622 177 q 641 248 641 206 q 626 327 641 290 q 589 398 611 365 q 540 463 566 431 q 491 530 513 494 q 439 710 439 614 l 559 805 q 510 844 537 821 q 454 890 484 868 q 341 945 383 945 q 271 930 299 945 q 224 895 243 917 q 183 808 183 850 q 197 739 184 765 q 235 696 210 713 q 363 661 283 661 l 363 543 q 149 608 229 543 q 65 799 65 676 q 138 975 65 895 q 334 1063 218 1063 q 567 955 445 1063 q 689 862 644 886 q 772 832 733 837 q 751 905 751 868 q 764 970 751 942 q 795 1019 775 998 q 903 1063 839 1063 q 1010 1018 966 1063 q 1055 918 1055 974 q 1032 826 1055 863 q 972 764 1009 789 m 902 947 q 895 947 902 947 q 877 937 887 947 q 866 910 866 926 q 877 885 866 895 q 902 874 887 874 q 928 885 918 874 q 939 910 939 895 q 928 937 939 926 q 902 947 918 947 m 719 1110 l 658 1206 l 895 1379 l 973 1272 l 719 1110 z "},"":{"ha":1114,"x_min":65,"x_max":1055,"o":"m 972 764 q 954 751 972 764 q 890 726 936 739 q 789 713 844 713 q 668 741 734 713 l 562 656 q 598 590 577 621 l 684 465 q 759 241 759 353 q 727 122 759 175 q 749 119 736 119 l 770 118 q 795 118 779 118 q 838 129 812 117 q 883 159 864 140 q 925 259 925 201 q 883 359 925 317 q 782 401 841 401 l 782 519 q 966 443 890 519 q 1042 259 1042 367 q 966 75 1042 151 q 782 -1 889 -1 q 513 106 650 -1 q 378 193 429 172 q 292 214 328 214 q 236 207 255 214 q 206 190 218 199 q 184 154 184 172 q 194 126 184 136 q 219 115 203 115 l 219 0 q 113 45 156 0 q 68 153 68 90 q 119 274 68 224 q 281 332 179 332 q 551 231 421 331 l 622 177 q 641 248 641 206 q 626 327 641 290 q 589 398 611 365 q 540 463 566 431 q 491 530 513 494 q 439 710 439 614 l 559 805 q 510 844 537 821 q 454 890 484 868 q 341 945 383 945 q 271 930 299 945 q 224 895 243 917 q 183 808 183 850 q 197 739 184 765 q 235 696 210 713 q 363 661 283 661 l 363 543 q 149 608 229 543 q 65 799 65 676 q 138 975 65 895 q 334 1063 218 1063 q 567 955 445 1063 q 689 862 644 886 q 772 832 733 837 q 751 905 751 868 q 764 970 751 942 q 795 1019 775 998 q 903 1063 839 1063 q 1010 1018 966 1063 q 1055 918 1055 974 q 1032 826 1055 863 q 972 764 1009 789 m 902 947 q 895 947 902 947 q 877 937 887 947 q 866 910 866 926 q 877 885 866 895 q 902 874 887 874 q 928 885 918 874 q 939 910 939 895 q 928 937 939 926 q 902 947 918 947 m 396 1209 l 641 1380 l 877 1209 l 807 1117 l 641 1240 q 591 1203 621 1223 l 466 1117 l 396 1209 z "},"":{"ha":1114,"x_min":65,"x_max":1055,"o":"m 972 764 q 954 751 972 764 q 890 726 936 739 q 789 713 844 713 q 668 741 734 713 l 562 656 q 598 590 577 621 l 684 465 q 759 241 759 353 q 727 122 759 175 q 749 119 736 119 l 770 118 q 795 118 779 118 q 838 129 812 117 q 883 159 864 140 q 925 259 925 201 q 883 359 925 317 q 782 401 841 401 l 782 519 q 966 443 890 519 q 1042 259 1042 367 q 966 75 1042 151 q 782 -1 889 -1 q 513 106 650 -1 q 378 193 429 172 q 292 214 328 214 q 236 207 255 214 q 206 190 218 199 q 184 154 184 172 q 194 126 184 136 q 219 115 203 115 l 219 0 q 113 45 156 0 q 68 153 68 90 q 119 274 68 224 q 281 332 179 332 q 551 231 421 331 l 622 177 q 641 248 641 206 q 626 327 641 290 q 589 398 611 365 q 540 463 566 431 q 491 530 513 494 q 439 710 439 614 l 559 805 q 510 844 537 821 q 454 890 484 868 q 341 945 383 945 q 271 930 299 945 q 224 895 243 917 q 183 808 183 850 q 197 739 184 765 q 235 696 210 713 q 363 661 283 661 l 363 543 q 149 608 229 543 q 65 799 65 676 q 138 975 65 895 q 334 1063 218 1063 q 567 955 445 1063 q 689 862 644 886 q 772 832 733 837 q 751 905 751 868 q 764 970 751 942 q 795 1019 775 998 q 903 1063 839 1063 q 1010 1018 966 1063 q 1055 918 1055 974 q 1032 826 1055 863 q 972 764 1009 789 m 902 947 q 895 947 902 947 q 877 937 887 947 q 866 910 866 926 q 877 885 866 895 q 902 874 887 874 q 928 885 918 874 q 939 910 939 895 q 928 937 939 926 q 902 947 918 947 m 800 1149 l 693 1185 l 773 1377 l 893 1329 l 800 1149 m 593 1149 l 486 1185 l 567 1377 l 687 1329 l 593 1149 z "},"":{"ha":1169,"x_min":60,"x_max":1116,"o":"m 368 215 q 382 152 382 185 q 370 92 382 119 q 338 44 358 64 q 230 0 293 0 q 123 44 167 0 q 79 140 79 88 q 98 224 79 193 q 148 277 117 255 q 282 320 211 320 q 397 306 353 321 q 477 269 441 291 q 544 220 513 246 q 605 171 575 193 q 733 119 675 119 q 841 148 792 119 q 924 224 888 176 q 998 467 997 326 q 879 748 997 611 q 701 888 806 834 q 594 930 650 916 l 399 743 q 522 635 441 682 q 564 614 545 622 l 759 614 l 759 498 l 616 498 q 571 389 616 433 q 465 347 528 347 q 357 391 401 347 q 313 498 313 435 q 82 635 140 498 q 60 749 60 686 q 89 871 60 812 q 172 972 118 929 q 476 1063 288 1063 q 798 971 644 1063 q 1027 747 939 886 q 1116 467 1116 608 q 1009 141 1116 275 q 726 1 897 1 q 519 88 615 1 l 468 136 q 368 215 404 196 m 369 614 q 298 671 317 647 q 261 774 261 718 l 437 943 q 248 878 319 934 q 179 747 179 823 q 249 625 179 659 q 303 614 272 614 l 369 614 m 182 152 q 196 117 182 132 q 231 103 210 103 q 266 117 251 103 q 280 152 280 132 q 266 187 280 172 q 231 201 251 201 q 196 187 210 201 q 182 152 182 172 m 417 498 q 431 463 417 477 q 466 449 446 449 q 501 463 486 449 q 515 498 515 477 l 417 498 z "},"":{"ha":1173,"x_min":26,"x_max":1160,"o":"m 260 216 q 366 157 332 216 q 545 651 545 426 q 486 863 545 778 q 342 945 427 945 q 259 919 287 945 q 231 859 231 894 q 245 802 231 825 q 278 758 258 779 q 321 716 298 737 q 365 669 345 694 q 412 537 412 608 q 368 428 412 473 q 259 384 323 384 q 153 429 196 384 q 109 537 109 473 q 169 658 109 612 q 210 680 187 671 q 146 739 163 713 q 113 844 113 789 q 127 938 113 899 q 171 1004 142 976 q 342 1063 233 1063 q 625 850 526 1063 l 777 517 q 926 827 802 676 q 1021 966 1000 916 q 1042 1063 1042 1017 l 1160 1063 q 1073 831 1160 940 l 1023 768 q 933 631 956 683 q 886 426 886 527 q 905 269 886 325 q 952 179 924 213 q 1083 118 1005 118 l 1083 0 q 860 92 945 0 q 806 174 829 125 l 650 513 q 382 -19 609 293 l 302 12 q 282 91 302 77 q 259 97 274 97 q 121 -20 210 97 l 26 52 q 213 210 130 189 q 260 216 237 216 m 260 572 q 252 572 260 572 q 234 562 245 572 q 224 535 224 551 q 234 510 224 520 q 260 499 245 499 q 286 510 275 499 q 297 535 297 520 q 286 562 297 551 q 260 572 275 572 m 754 1223 q 646 1127 696 1223 l 545 1184 q 684 1327 604 1293 q 738 1339 711 1339 q 787 1325 765 1339 q 829 1295 810 1312 l 864 1265 q 897 1252 881 1252 q 926 1260 912 1252 q 952 1283 939 1270 q 1000 1352 977 1310 l 1101 1295 q 963 1149 1043 1192 q 911 1136 937 1136 q 862 1149 885 1136 q 820 1179 839 1163 l 785 1209 q 754 1223 770 1223 z "},"":{"ha":1124,"x_min":16,"x_max":1069,"o":"m 132 484 q 149 441 132 458 q 193 423 167 423 q 236 441 218 423 q 254 487 254 458 q 245 538 254 515 q 221 583 235 562 q 190 625 206 604 q 159 670 174 646 q 125 793 125 726 q 154 910 125 860 q 237 995 183 961 q 534 1063 345 1063 q 804 991 680 1063 q 996 802 925 921 q 1069 533 1069 678 q 996 264 1069 388 q 805 73 926 143 q 536 0 681 0 q 209 119 357 0 q 123 204 161 157 l 216 279 q 361 161 279 205 q 518 118 443 118 q 646 133 593 118 q 745 175 699 148 q 829 239 791 201 q 894 323 867 277 q 951 520 951 420 q 918 694 951 619 q 829 825 886 769 q 534 945 707 945 q 264 863 324 945 q 243 800 243 835 q 252 743 243 766 q 276 699 262 720 q 307 659 290 679 q 338 613 324 638 q 372 483 372 555 q 320 357 372 409 q 194 305 268 305 q 68 358 119 305 q 16 484 16 411 l 132 484 m 308 1246 l 387 1353 l 623 1181 l 561 1084 l 308 1246 z "},"":{"ha":1124,"x_min":16,"x_max":1069,"o":"m 132 484 q 149 441 132 458 q 193 423 167 423 q 236 441 218 423 q 254 487 254 458 q 245 538 254 515 q 221 583 235 562 q 190 625 206 604 q 159 670 174 646 q 125 793 125 726 q 154 910 125 860 q 237 995 183 961 q 534 1063 345 1063 q 804 991 680 1063 q 996 802 925 921 q 1069 533 1069 678 q 996 264 1069 388 q 805 73 926 143 q 536 0 681 0 q 209 119 357 0 q 123 204 161 157 l 216 279 q 361 161 279 205 q 518 118 443 118 q 646 133 593 118 q 745 175 699 148 q 829 239 791 201 q 894 323 867 277 q 951 520 951 420 q 918 694 951 619 q 829 825 886 769 q 534 945 707 945 q 264 863 324 945 q 243 800 243 835 q 252 743 243 766 q 276 699 262 720 q 307 659 290 679 q 338 613 324 638 q 372 483 372 555 q 320 357 372 409 q 194 305 268 305 q 68 358 119 305 q 16 484 16 411 l 132 484 m 505 1084 l 444 1181 l 681 1353 l 760 1246 l 505 1084 z "},"":{"ha":1124,"x_min":16,"x_max":1069,"o":"m 132 484 q 149 441 132 458 q 193 423 167 423 q 236 441 218 423 q 254 487 254 458 q 245 538 254 515 q 221 583 235 562 q 190 625 206 604 q 159 670 174 646 q 125 793 125 726 q 154 910 125 860 q 237 995 183 961 q 534 1063 345 1063 q 804 991 680 1063 q 996 802 925 921 q 1069 533 1069 678 q 996 264 1069 388 q 805 73 926 143 q 536 0 681 0 q 209 119 357 0 q 123 204 161 157 l 216 279 q 361 161 279 205 q 518 118 443 118 q 646 133 593 118 q 745 175 699 148 q 829 239 791 201 q 894 323 867 277 q 951 520 951 420 q 918 694 951 619 q 829 825 886 769 q 534 945 707 945 q 264 863 324 945 q 243 800 243 835 q 252 743 243 766 q 276 699 262 720 q 307 659 290 679 q 338 613 324 638 q 372 483 372 555 q 320 357 372 409 q 194 305 268 305 q 68 358 119 305 q 16 484 16 411 l 132 484 m 306 1183 l 551 1354 l 787 1183 l 717 1091 l 551 1214 q 502 1177 532 1198 l 376 1091 l 306 1183 z "},"":{"ha":1124,"x_min":16,"x_max":1069,"o":"m 132 484 q 149 441 132 458 q 193 423 167 423 q 236 441 218 423 q 254 487 254 458 q 245 538 254 515 q 221 583 235 562 q 190 625 206 604 q 159 670 174 646 q 125 793 125 726 q 154 910 125 860 q 237 995 183 961 q 534 1063 345 1063 q 804 991 680 1063 q 996 802 925 921 q 1069 533 1069 678 q 996 264 1069 388 q 805 73 926 143 q 536 0 681 0 q 209 119 357 0 q 123 204 161 157 l 216 279 q 361 161 279 205 q 518 118 443 118 q 646 133 593 118 q 745 175 699 148 q 829 239 791 201 q 894 323 867 277 q 951 520 951 420 q 918 694 951 619 q 829 825 886 769 q 534 945 707 945 q 264 863 324 945 q 243 800 243 835 q 252 743 243 766 q 276 699 262 720 q 307 659 290 679 q 338 613 324 638 q 372 483 372 555 q 320 357 372 409 q 194 305 268 305 q 68 358 119 305 q 16 484 16 411 l 132 484 m 464 1197 q 356 1101 406 1197 l 255 1158 q 393 1301 313 1267 q 448 1313 420 1313 q 497 1299 475 1313 q 538 1270 519 1286 l 574 1240 q 606 1226 591 1226 q 635 1234 622 1226 q 662 1257 649 1244 q 709 1326 687 1284 l 810 1270 q 673 1124 753 1166 q 621 1110 647 1110 q 572 1124 595 1110 q 530 1154 549 1137 l 495 1183 q 464 1197 479 1197 z "},"":{"ha":1124,"x_min":16,"x_max":1069,"o":"m 132 484 q 149 441 132 458 q 193 423 167 423 q 236 441 218 423 q 254 487 254 458 q 245 538 254 515 q 221 583 235 562 q 190 625 206 604 q 159 670 174 646 q 125 793 125 726 q 154 910 125 860 q 237 995 183 961 q 534 1063 345 1063 q 804 991 680 1063 q 996 802 925 921 q 1069 533 1069 678 q 996 264 1069 388 q 805 73 926 143 q 536 0 681 0 q 209 119 357 0 q 123 204 161 157 l 216 279 q 361 161 279 205 q 518 118 443 118 q 646 133 593 118 q 745 175 699 148 q 829 239 791 201 q 894 323 867 277 q 951 520 951 420 q 918 694 951 619 q 829 825 886 769 q 534 945 707 945 q 264 863 324 945 q 243 800 243 835 q 252 743 243 766 q 276 699 262 720 q 307 659 290 679 q 338 613 324 638 q 372 483 372 555 q 320 357 372 409 q 194 305 268 305 q 68 358 119 305 q 16 484 16 411 l 132 484 m 709 1124 l 602 1160 l 682 1351 l 802 1303 l 709 1124 m 503 1124 l 395 1160 l 476 1351 l 596 1303 l 503 1124 z "},"":{"ha":646,"x_min":58,"x_max":587,"o":"m 127 721 l 322 569 l 517 721 l 587 629 l 416 497 l 587 365 l 517 273 l 322 424 l 127 273 l 58 365 l 229 497 l 58 629 l 127 721 z "},"":{"ha":1162,"x_min":24,"x_max":1174,"o":"m 224 323 q 285 261 254 287 l 865 838 q 636 978 774 947 q 533 989 590 989 q 423 981 477 989 q 331 954 369 972 q 251 839 251 915 q 284 743 251 790 q 315 702 298 722 q 347 656 332 682 q 380 526 380 598 q 328 400 380 452 q 202 349 276 349 q 76 401 127 349 q 24 528 24 454 l 140 528 q 157 484 140 502 q 201 467 175 467 q 244 484 227 467 q 262 530 262 502 q 253 582 262 558 q 229 626 243 605 q 198 669 214 648 q 167 713 182 689 q 133 836 133 769 q 162 954 133 903 q 245 1038 191 1004 q 542 1107 353 1107 q 867 998 722 1107 q 949 921 912 964 l 1090 1061 l 1174 977 l 1017 821 q 1077 576 1077 705 q 1004 307 1077 431 q 813 116 934 186 q 553 43 689 43 q 299 108 416 43 l 176 -15 l 92 69 l 200 177 q 131 248 163 208 l 224 323 m 388 196 q 532 161 463 161 q 654 176 601 161 q 753 218 707 191 q 837 283 799 245 q 902 367 875 321 q 959 576 959 464 q 928 732 959 656 l 388 196 z "},"":{"ha":833,"x_min":63,"x_max":777,"o":"m 711 -20 q 570 203 573 64 l 268 -20 l 208 50 q 97 332 97 183 q 120 522 97 410 q 153 694 142 634 q 163 806 163 755 q 138 893 163 857 q 63 969 113 929 l 134 1063 q 273 883 250 974 q 281 799 281 850 q 271 689 281 747 q 248 574 260 631 q 215 332 215 418 q 284 142 215 235 l 570 354 l 570 1042 l 688 1042 l 688 231 q 709 143 688 179 q 777 74 729 107 l 711 -20 m 154 1246 l 233 1353 l 469 1181 l 407 1084 l 154 1246 z "},"":{"ha":833,"x_min":63,"x_max":777,"o":"m 711 -20 q 570 203 573 64 l 268 -20 l 208 50 q 97 332 97 183 q 120 522 97 410 q 153 694 142 634 q 163 806 163 755 q 138 893 163 857 q 63 969 113 929 l 134 1063 q 273 883 250 974 q 281 799 281 850 q 271 689 281 747 q 248 574 260 631 q 215 332 215 418 q 284 142 215 235 l 570 354 l 570 1042 l 688 1042 l 688 231 q 709 143 688 179 q 777 74 729 107 l 711 -20 m 427 1084 l 366 1181 l 602 1353 l 681 1246 l 427 1084 z "},"":{"ha":833,"x_min":63,"x_max":777,"o":"m 711 -20 q 570 203 573 64 l 268 -20 l 208 50 q 97 332 97 183 q 120 522 97 410 q 153 694 142 634 q 163 806 163 755 q 138 893 163 857 q 63 969 113 929 l 134 1063 q 273 883 250 974 q 281 799 281 850 q 271 689 281 747 q 248 574 260 631 q 215 332 215 418 q 284 142 215 235 l 570 354 l 570 1042 l 688 1042 l 688 231 q 709 143 688 179 q 777 74 729 107 l 711 -20 m 163 1183 l 408 1354 l 644 1183 l 574 1091 l 408 1214 q 358 1177 388 1198 l 233 1091 l 163 1183 z "},"":{"ha":833,"x_min":63,"x_max":777,"o":"m 711 -20 q 570 203 573 64 l 268 -20 l 208 50 q 97 332 97 183 q 120 522 97 410 q 153 694 142 634 q 163 806 163 755 q 138 893 163 857 q 63 969 113 929 l 134 1063 q 273 883 250 974 q 281 799 281 850 q 271 689 281 747 q 248 574 260 631 q 215 332 215 418 q 284 142 215 235 l 570 354 l 570 1042 l 688 1042 l 688 231 q 709 143 688 179 q 777 74 729 107 l 711 -20 m 547 1124 l 439 1160 l 519 1351 l 640 1303 l 547 1124 m 340 1124 l 233 1160 l 313 1351 l 433 1303 l 340 1124 z "},"":{"ha":1001,"x_min":65,"x_max":893,"o":"m 365 450 q 479 699 479 595 q 427 865 479 791 q 300 945 373 944 q 216 919 244 945 q 188 859 188 894 q 201 802 188 825 q 235 758 215 779 q 278 716 255 737 q 321 669 301 694 q 369 537 369 608 q 325 428 369 473 q 216 384 280 384 q 109 429 153 384 q 65 537 65 473 q 125 658 65 612 q 166 680 144 671 q 103 739 120 713 q 69 844 69 789 q 84 938 69 899 q 127 1004 99 976 q 300 1063 189 1063 q 512 947 422 1063 q 597 699 597 837 q 524 475 598 586 q 481 416 503 444 q 551 270 486 333 l 765 438 q 755 536 760 490 q 746 626 750 582 q 738 715 741 671 q 731 811 734 761 q 724 1049 724 918 l 842 1049 q 865 621 838 833 q 893 258 893 398 q 858 30 893 117 q 762 -118 822 -58 q 459 -239 641 -239 q 239 -182 338 -239 q 123 6 123 -116 q 167 113 123 68 q 273 157 211 157 q 382 113 338 157 q 427 3 427 69 q 373 -111 427 -63 q 468 -121 415 -121 q 577 -98 520 -121 q 678 -30 635 -75 q 774 233 774 70 l 774 296 l 549 118 q 365 450 365 264 m 274 41 q 267 41 274 41 q 249 31 259 41 q 238 4 238 20 q 249 -21 238 -11 q 274 -32 259 -32 q 300 -21 290 -32 q 311 4 311 -11 q 300 31 311 20 q 274 41 290 41 m 217 572 q 209 572 217 572 q 191 562 201 572 q 180 535 180 551 q 191 510 180 520 q 217 499 201 499 q 243 510 232 499 q 254 535 254 520 q 243 562 254 551 q 217 572 232 572 m 635 1110 l 574 1206 l 810 1379 l 889 1272 l 635 1110 z "},"":{"ha":1087,"x_min":63,"x_max":1026,"o":"m 496 191 q 289 79 390 180 l 203 160 q 326 257 277 231 q 496 313 411 303 l 496 728 q 433 888 496 825 q 309 945 375 945 q 214 919 242 945 q 186 859 186 894 q 199 802 186 825 q 233 758 213 779 q 276 716 253 737 q 320 669 300 694 q 367 537 368 608 q 322 428 367 473 q 214 384 278 384 q 107 429 151 384 q 63 537 63 473 q 123 658 63 612 q 164 680 142 671 q 101 739 118 713 q 67 844 67 789 q 82 937 67 899 q 126 1004 98 976 q 298 1063 187 1063 q 506 985 413 1063 q 614 730 614 894 l 614 694 l 872 834 q 1016 632 985 753 q 1026 554 1026 593 l 1026 290 q 939 89 1026 157 l 862 28 q 675 170 774 119 q 614 191 642 188 l 614 87 q 468 -220 614 -155 q 381 -239 427 -239 l 375 -239 q 269 -194 312 -239 q 224 -85 224 -149 q 269 21 224 -23 q 375 65 313 65 q 490 -5 456 65 q 496 56 496 14 l 496 191 m 871 182 q 910 290 910 216 l 910 554 q 850 692 910 650 l 614 561 l 614 311 q 823 224 722 298 q 871 182 850 203 m 376 -50 q 368 -50 376 -50 q 350 -61 361 -50 q 340 -87 340 -72 q 350 -113 340 -102 q 376 -123 361 -123 q 402 -113 391 -123 q 413 -87 413 -102 q 402 -61 413 -72 q 376 -50 391 -50 m 215 572 q 207 572 215 572 q 189 562 199 572 q 178 535 178 551 q 189 510 178 520 q 215 499 199 499 q 241 510 230 499 q 252 535 252 520 q 241 562 252 551 q 215 572 230 572 z "},"":{"ha":646,"x_min":-9,"x_max":589,"o":"m 259 947 q 224 887 224 947 q 233 823 224 864 q 255 721 250 744 l 262 688 l 444 834 q 582 705 553 792 q 589 660 589 686 q 582 609 589 634 q 562 562 575 585 q 486 468 539 523 q 584 339 570 423 q 589 266 589 312 q 568 169 589 220 q 513 71 548 117 q 328 -113 460 0 l 271 -41 l 264 -106 q 256 -177 260 -140 l 141 -162 q 172 241 172 68 q 155 629 172 496 q 61 575 109 610 l -9 667 q 131 743 68 724 q 109 886 109 841 q 117 960 109 930 q 141 1013 125 990 q 239 1063 177 1063 q 336 1031 286 1063 l 305 1097 l 397 1150 q 456 991 456 1048 q 408 910 456 933 q 371 902 392 902 q 334 909 349 903 q 305 925 317 917 l 281 940 q 259 947 271 947 m 278 552 q 288 354 288 441 q 288 229 288 266 q 285 155 286 193 q 274 -11 281 74 q 405 121 370 73 q 473 279 473 212 q 433 359 473 322 q 307 434 393 396 l 377 506 q 459 605 443 574 q 475 649 475 635 q 458 697 475 681 l 279 552 l 278 552 z "},"":{"ha":541,"x_min":35,"x_max":530,"o":"m 174 145 q 195 106 174 119 l 327 205 l 327 658 l 232 584 q 174 460 174 538 l 174 145 m 465 -20 q 359 82 392 24 l 222 -20 q 73 79 113 -1 q 58 145 58 107 l 58 460 q 158 672 58 597 l 372 834 l 442 798 l 442 231 q 463 143 442 179 q 530 74 483 107 l 465 -20 m 35 1042 l 113 1149 l 349 977 l 288 880 l 35 1042 z "},"":{"ha":541,"x_min":58,"x_max":530,"o":"m 174 145 q 195 106 174 119 l 327 205 l 327 658 l 232 584 q 174 460 174 538 l 174 145 m 465 -20 q 359 82 392 24 l 222 -20 q 73 79 113 -1 q 58 145 58 107 l 58 460 q 158 672 58 597 l 372 834 l 442 798 l 442 231 q 463 143 442 179 q 530 74 483 107 l 465 -20 m 273 881 l 212 977 l 448 1149 l 527 1042 l 273 881 z "},"":{"ha":541,"x_min":37,"x_max":530,"o":"m 174 145 q 195 106 174 119 l 327 205 l 327 658 l 232 584 q 174 460 174 538 l 174 145 m 465 -20 q 359 82 392 24 l 222 -20 q 73 79 113 -1 q 58 145 58 107 l 58 460 q 158 672 58 597 l 372 834 l 442 798 l 442 231 q 463 143 442 179 q 530 74 483 107 l 465 -20 m 37 980 l 282 1151 l 518 980 l 448 888 l 282 1010 q 233 974 263 994 l 107 888 l 37 980 z "},"":{"ha":541,"x_min":-14,"x_max":542,"o":"m 174 145 q 195 106 174 119 l 327 205 l 327 658 l 232 584 q 174 460 174 538 l 174 145 m 465 -20 q 359 82 392 24 l 222 -20 q 73 79 113 -1 q 58 145 58 107 l 58 460 q 158 672 58 597 l 372 834 l 442 798 l 442 231 q 463 143 442 179 q 530 74 483 107 l 465 -20 m 195 994 q 87 898 137 994 l -14 955 q 125 1098 45 1063 q 179 1109 152 1109 q 229 1096 206 1109 q 270 1066 251 1082 l 305 1036 q 338 1023 322 1023 q 367 1031 353 1023 q 393 1054 380 1040 q 441 1122 418 1081 l 542 1066 q 404 920 484 963 q 352 907 378 907 q 303 920 326 907 q 261 950 280 934 l 227 980 q 195 994 211 994 z "},"":{"ha":541,"x_min":58,"x_max":530,"o":"m 174 145 q 195 106 174 119 l 327 205 l 327 658 l 232 584 q 174 460 174 538 l 174 145 m 465 -20 q 359 82 392 24 l 222 -20 q 73 79 113 -1 q 58 145 58 107 l 58 460 q 158 672 58 597 l 372 834 l 442 798 l 442 231 q 463 143 442 179 q 530 74 483 107 l 465 -20 m 433 920 l 326 956 l 406 1147 l 526 1099 l 433 920 m 226 920 l 119 956 l 199 1147 l 319 1099 l 226 920 z "},"":{"ha":541,"x_min":58,"x_max":530,"o":"m 174 145 q 195 106 174 119 l 327 205 l 327 658 l 232 584 q 174 460 174 538 l 174 145 m 465 -20 q 359 82 392 24 l 222 -20 q 73 79 113 -1 q 58 145 58 107 l 58 460 q 158 672 58 597 l 372 834 l 442 798 l 442 231 q 463 143 442 179 q 530 74 483 107 l 465 -20 m 112 1016 q 154 1119 112 1076 q 257 1162 195 1161 q 361 1119 319 1161 q 404 1016 404 1076 q 361 913 404 956 q 257 870 319 871 q 154 913 195 871 q 112 1016 112 956 m 259 1063 q 249 1063 259 1063 q 226 1049 239 1063 q 212 1016 212 1035 q 226 983 212 996 q 259 970 239 970 q 292 983 278 970 q 306 1016 306 996 q 292 1049 306 1035 q 259 1063 278 1063 z "},"":{"ha":750,"x_min":66,"x_max":725,"o":"m 527 -20 q 347 130 384 22 l 146 -21 l 66 19 l 66 540 q 150 720 66 657 l 302 835 q 422 718 387 780 l 588 834 l 725 574 l 450 367 l 450 210 q 505 110 450 140 l 642 217 l 710 122 l 527 -20 m 218 627 q 182 540 182 597 l 182 149 l 298 233 q 334 307 334 259 l 334 621 q 302 692 334 660 l 218 627 m 509 638 q 450 511 451 595 l 580 607 q 548 666 555 652 l 509 638 z "},"":{"ha":465,"x_min":51,"x_max":451,"o":"m 210 -55 q 263 -151 263 -88 q 207 -242 263 -207 q 75 -276 153 -276 l 75 -160 q 134 -153 127 -160 q 142 -137 142 -146 q 124 -118 142 -121 q 73 -115 107 -115 l 51 -35 l 154 26 q 61 210 61 92 l 61 508 q 80 624 61 585 q 170 732 111 691 l 315 834 l 451 575 l 357 519 l 276 667 l 236 638 q 176 508 176 595 l 176 210 q 231 110 176 140 l 369 217 l 437 122 l 210 -55 z "},"":{"ha":476,"x_min":55,"x_max":451,"o":"m 253 -20 q 60 210 60 35 l 60 508 q 79 624 60 585 q 169 732 110 691 l 314 834 l 451 574 l 176 367 l 176 210 q 231 110 176 140 l 368 217 l 436 122 l 253 -20 m 235 638 q 176 511 177 595 l 306 607 q 274 666 281 652 l 235 638 m 55 1042 l 134 1149 l 370 977 l 308 880 l 55 1042 z "},"":{"ha":476,"x_min":60,"x_max":507,"o":"m 253 -20 q 60 210 60 35 l 60 508 q 79 624 60 585 q 169 732 110 691 l 314 834 l 451 574 l 176 367 l 176 210 q 231 110 176 140 l 368 217 l 436 122 l 253 -20 m 235 638 q 176 511 177 595 l 306 607 q 274 666 281 652 l 235 638 m 252 881 l 191 977 l 428 1149 l 507 1042 l 252 881 z "},"":{"ha":475,"x_min":39,"x_max":519,"o":"m 253 -20 q 60 210 60 35 l 60 508 q 79 624 60 585 q 169 732 110 691 l 314 834 l 451 574 l 176 367 l 176 210 q 231 110 176 140 l 368 217 l 436 122 l 253 -20 m 235 638 q 176 511 177 595 l 306 607 q 274 666 281 652 l 235 638 m 39 980 l 283 1151 l 519 980 l 450 888 l 283 1010 q 235 974 264 994 l 109 888 l 39 980 z "},"":{"ha":475,"x_min":60,"x_max":509,"o":"m 253 -20 q 60 210 60 35 l 60 508 q 79 624 60 585 q 169 732 110 691 l 314 834 l 451 574 l 176 367 l 176 210 q 231 110 176 140 l 368 217 l 436 122 l 253 -20 m 235 638 q 176 511 177 595 l 306 607 q 274 666 281 652 l 235 638 m 416 920 l 309 956 l 389 1147 l 509 1099 l 416 920 m 210 920 l 102 956 l 183 1147 l 303 1099 l 210 920 z "},"":{"ha":297,"x_min":-90,"x_max":285,"o":"m 197 814 l 197 231 q 217 143 197 179 q 285 74 237 107 l 219 -20 q 88 146 109 50 q 81 216 81 179 l 81 814 l 197 814 m -90 1042 l -12 1149 l 224 977 l 163 880 l -90 1042 z "},"":{"ha":298,"x_min":69,"x_max":385,"o":"m 197 814 l 197 231 q 218 143 197 179 q 286 74 238 107 l 220 -20 q 89 146 109 50 q 82 216 82 179 l 82 814 l 197 814 m 130 881 l 69 977 l 306 1149 l 385 1042 l 130 881 z "},"":{"ha":297,"x_min":-101,"x_max":380,"o":"m 197 814 l 197 231 q 217 143 197 179 q 285 74 237 107 l 219 -20 q 88 146 109 50 q 81 216 81 179 l 81 814 l 197 814 m -101 980 l 144 1151 l 380 980 l 310 888 l 144 1010 q 95 974 125 994 q -31 888 95 974 l -101 980 z "},"":{"ha":298,"x_min":-8,"x_max":399,"o":"m 197 814 l 197 231 q 218 143 197 179 q 286 74 238 107 l 220 -20 q 89 146 109 50 q 82 216 82 179 l 82 814 l 197 814 m 306 920 l 199 956 l 279 1147 l 399 1099 l 306 920 m 99 920 l -8 956 l 73 1147 l 193 1099 l 99 920 z "},"":{"ha":532,"x_min":-3,"x_max":504,"o":"m 260 1055 q 196 943 196 1010 q 198 923 196 933 l 332 1027 l 397 938 l 251 825 q 323 753 286 784 q 393 690 361 722 q 449 620 425 659 q 504 435 503 534 q 342 110 504 249 l 192 -20 l 111 25 l 111 562 q 143 652 111 617 l 197 712 q 176 732 185 722 l 157 752 l 62 677 l -3 767 l 100 846 q 81 936 81 895 q 91 1009 81 977 q 117 1067 101 1040 q 195 1151 149 1119 l 260 1055 m 353 290 q 363 308 353 290 q 381 356 374 326 q 389 418 389 386 q 380 481 389 451 q 357 539 372 511 q 284 637 328 594 l 226 570 l 226 159 l 268 196 q 353 290 333 254 z "},"":{"ha":580,"x_min":-14,"x_max":568,"o":"m 480 207 q 568 72 480 139 l 498 -20 q 370 150 391 64 q 364 213 363 178 q 368 286 364 248 q 374 361 370 324 q 384 517 384 458 q 332 674 384 595 l 212 580 l 212 0 l 96 0 l 96 637 q 47 722 96 680 q 22 741 35 732 l 85 838 q 198 715 174 780 l 350 834 q 487 601 453 719 q 499 517 499 559 q 492 397 499 468 q 480 207 480 259 m 195 994 q 87 898 136 994 l -14 955 q 123 1098 43 1063 q 178 1109 151 1109 q 228 1096 205 1109 q 269 1066 250 1082 l 304 1036 q 337 1023 321 1023 q 366 1031 353 1023 q 393 1054 380 1040 q 440 1122 418 1081 l 541 1066 q 404 920 484 963 q 352 907 378 907 q 302 920 326 907 q 260 950 279 934 l 226 980 q 195 994 210 994 z "},"":{"ha":508,"x_min":48,"x_max":450,"o":"m 66 19 l 66 540 q 150 720 66 657 l 302 835 q 393 758 366 791 q 450 621 450 690 l 450 307 q 366 144 450 207 l 146 -21 l 66 19 m 218 627 q 182 540 182 597 l 182 149 l 298 233 q 334 307 334 259 l 334 621 q 302 692 334 660 l 218 627 m 48 1042 l 127 1149 l 363 977 l 301 880 l 48 1042 z "},"":{"ha":508,"x_min":66,"x_max":529,"o":"m 66 19 l 66 540 q 150 720 66 657 l 302 835 q 393 758 366 791 q 450 621 450 690 l 450 307 q 366 144 450 207 l 146 -21 l 66 19 m 218 627 q 182 540 182 597 l 182 149 l 298 233 q 334 307 334 259 l 334 621 q 302 692 334 660 l 218 627 m 275 881 l 214 977 l 450 1149 l 529 1042 l 275 881 z "},"":{"ha":508,"x_min":23,"x_max":504,"o":"m 66 19 l 66 540 q 150 720 66 657 l 302 835 q 393 758 366 791 q 450 621 450 690 l 450 307 q 366 144 450 207 l 146 -21 l 66 19 m 218 627 q 182 540 182 597 l 182 149 l 298 233 q 334 307 334 259 l 334 621 q 302 692 334 660 l 218 627 m 23 980 l 268 1151 l 504 980 l 434 888 l 268 1010 q 218 974 248 994 l 93 888 l 23 980 z "},"":{"ha":507,"x_min":-17,"x_max":538,"o":"m 66 19 l 66 540 q 149 720 66 657 l 301 835 q 393 758 365 791 q 449 621 449 690 l 449 307 q 366 144 449 207 l 145 -21 l 66 19 m 218 627 q 181 540 181 597 l 181 149 l 298 233 q 334 307 334 259 l 334 621 q 302 692 334 660 l 218 627 m 192 994 q 84 898 134 994 l -17 955 q 121 1098 41 1063 q 175 1109 148 1109 q 225 1096 203 1109 q 266 1066 247 1082 l 302 1036 q 334 1023 319 1023 q 363 1031 350 1023 q 390 1054 377 1040 q 437 1122 415 1081 l 538 1066 q 401 920 481 963 q 349 907 376 907 q 300 920 323 907 q 258 950 277 934 l 223 980 q 192 994 208 994 z "},"":{"ha":508,"x_min":66,"x_max":515,"o":"m 66 19 l 66 540 q 150 720 66 657 l 302 835 q 393 758 366 791 q 450 621 450 690 l 450 307 q 366 144 450 207 l 146 -21 l 66 19 m 218 627 q 182 540 182 597 l 182 149 l 298 233 q 334 307 334 259 l 334 621 q 302 692 334 660 l 218 627 m 422 920 l 315 956 l 395 1147 l 515 1099 l 422 920 m 216 920 l 109 956 l 189 1147 l 309 1099 l 216 920 z "},"":{"ha":701,"x_min":46,"x_max":655,"o":"m 46 414 l 46 527 l 655 527 l 655 414 l 46 414 m 363 579 l 256 614 l 336 806 l 456 758 l 363 579 m 321 372 l 428 336 l 348 144 l 228 193 l 321 372 z "},"":{"ha":581,"x_min":-24,"x_max":608,"o":"m -24 256 l 107 358 l 107 540 q 191 720 107 657 l 342 835 q 424 769 399 798 q 487 655 476 712 l 537 694 l 608 603 l 490 511 l 490 307 q 407 144 490 207 l 186 -21 l 107 19 l 107 212 l 46 164 l -24 256 m 339 233 q 375 307 375 259 l 375 421 l 222 302 l 222 149 l 339 233 m 259 627 q 222 540 222 597 l 222 448 l 375 568 l 375 621 q 343 692 375 660 l 259 627 z "},"":{"ha":585,"x_min":12,"x_max":572,"o":"m 12 743 l 81 835 q 209 665 189 751 q 216 602 216 637 q 213 529 216 566 q 206 454 210 491 q 197 302 197 351 q 248 140 197 216 l 369 234 l 369 813 l 484 813 l 484 231 q 505 143 484 179 q 572 74 525 107 l 507 -20 q 390 104 422 33 l 230 -20 q 93 212 127 94 q 81 296 81 254 q 87 420 81 353 q 100 611 100 548 q 12 743 100 674 m 15 1038 l 94 1145 l 330 972 l 268 876 l 15 1038 z "},"":{"ha":585,"x_min":12,"x_max":572,"o":"m 12 743 l 81 835 q 209 665 189 751 q 216 602 216 637 q 213 529 216 566 q 206 454 210 491 q 197 302 197 351 q 248 140 197 216 l 369 234 l 369 813 l 484 813 l 484 231 q 505 143 484 179 q 572 74 525 107 l 507 -20 q 390 104 422 33 l 230 -20 q 93 212 127 94 q 81 296 81 254 q 87 420 81 353 q 100 611 100 548 q 12 743 100 674 m 281 881 l 220 977 l 457 1149 l 536 1042 l 281 881 z "},"":{"ha":585,"x_min":12,"x_max":572,"o":"m 12 743 l 81 835 q 209 665 189 751 q 216 602 216 637 q 213 529 216 566 q 206 454 210 491 q 197 302 197 351 q 248 140 197 216 l 369 234 l 369 813 l 484 813 l 484 231 q 505 143 484 179 q 572 74 525 107 l 507 -20 q 390 104 422 33 l 230 -20 q 93 212 127 94 q 81 296 81 254 q 87 420 81 353 q 100 611 100 548 q 12 743 100 674 m 47 980 l 292 1151 l 528 980 l 458 888 l 292 1010 q 243 974 273 994 l 117 888 l 47 980 z "},"":{"ha":585,"x_min":12,"x_max":572,"o":"m 12 743 l 81 835 q 209 665 189 751 q 216 602 216 637 q 213 529 216 566 q 206 454 210 491 q 197 302 197 351 q 248 140 197 216 l 369 234 l 369 813 l 484 813 l 484 231 q 505 143 484 179 q 572 74 525 107 l 507 -20 q 390 104 422 33 l 230 -20 q 93 212 127 94 q 81 296 81 254 q 87 420 81 353 q 100 611 100 548 q 12 743 100 674 m 439 920 l 332 956 l 412 1147 l 532 1099 l 439 920 m 233 920 l 125 956 l 206 1147 l 326 1099 l 233 920 z "},"":{"ha":581,"x_min":31,"x_max":545,"o":"m 239 -115 q 286 -123 259 -123 q 340 -109 313 -123 q 387 -73 366 -95 q 429 35 430 -26 q 413 110 429 74 q 389 163 396 146 l 260 60 q 231 79 248 68 l 191 100 q 97 145 142 127 l 97 652 q 62 720 96 688 q 31 748 50 732 l 109 834 q 186 756 170 781 q 213 673 213 716 l 213 222 q 235 211 224 216 q 254 201 245 205 l 365 290 l 365 541 q 319 663 365 604 q 289 699 305 680 l 241 752 l 323 834 l 371 782 q 443 688 424 724 q 480 543 480 619 l 480 294 q 490 231 480 262 q 513 168 500 199 q 545 30 545 83 q 524 -72 545 -22 q 468 -159 503 -122 q 283 -239 391 -239 q 119 -192 189 -239 q 37 -47 37 -138 q 70 32 37 -1 q 149 65 102 65 q 229 33 195 65 q 262 -42 262 0 q 239 -115 262 -85 m 220 881 l 159 977 l 396 1149 l 475 1042 l 220 881 z "},"":{"ha":519,"x_min":90,"x_max":473,"o":"m 311 849 q 473 456 473 673 q 454 293 473 351 q 344 118 419 183 l 344 119 l 205 2 l 205 -214 l 90 -214 l 92 869 q 219 1084 106 991 q 293 1133 254 1112 l 351 1033 q 217 892 251 979 q 205 831 206 863 l 205 762 l 311 849 m 205 612 l 205 152 l 269 204 q 356 391 349 270 q 358 457 358 426 q 355 519 358 489 q 345 578 351 548 q 298 688 330 640 l 205 612 z "},"":{"ha":581,"x_min":31,"x_max":545,"o":"m 239 -115 q 286 -123 259 -123 q 340 -109 313 -123 q 387 -73 366 -95 q 429 35 430 -26 q 413 110 429 74 q 389 163 396 146 l 260 60 q 231 79 248 68 l 191 100 q 97 145 142 127 l 97 652 q 62 720 96 688 q 31 748 50 732 l 109 834 q 186 756 170 781 q 213 673 213 716 l 213 222 q 235 211 224 216 q 254 201 245 205 l 365 290 l 365 541 q 319 663 365 604 q 289 699 305 680 l 241 752 l 323 834 l 371 782 q 443 688 424 724 q 480 543 480 619 l 480 294 q 490 231 480 262 q 513 168 500 199 q 545 30 545 83 q 524 -72 545 -22 q 468 -159 503 -122 q 283 -239 391 -239 q 119 -192 189 -239 q 37 -47 37 -138 q 70 32 37 -1 q 149 65 102 65 q 229 33 195 65 q 262 -42 262 0 q 239 -115 262 -85 m 215 920 l 108 956 l 189 1147 l 309 1099 l 215 920 m 422 920 l 315 956 l 395 1147 l 515 1099 l 422 920 z "},"":{"ha":298,"x_min":82,"x_max":286,"o":"m 197 814 l 197 231 q 218 143 197 179 q 286 74 238 107 l 220 -20 q 89 146 109 50 q 82 216 82 179 l 82 814 l 197 814 z "},"":{"ha":1792,"x_min":16,"x_max":1746,"o":"m 1459 532 q 1491 423 1491 479 q 1475 330 1491 368 q 1430 263 1459 292 q 1283 203 1369 202 q 1136 263 1197 203 q 1076 410 1076 324 q 1111 526 1076 473 l 1204 456 q 1192 414 1192 436 q 1199 375 1192 391 q 1219 347 1206 359 q 1282 320 1245 320 q 1347 347 1320 320 q 1373 405 1373 373 q 1361 459 1373 437 q 1329 500 1349 481 q 1286 533 1310 518 l 1238 562 q 1134 632 1162 604 q 1078 758 1078 689 q 1126 880 1078 825 q 1145 918 1145 902 q 1113 945 1145 945 q 1049 919 1080 945 q 994 842 1019 894 q 939 526 939 726 q 1046 216 939 327 q 1284 117 1140 117 q 1512 213 1414 117 q 1636 412 1588 286 l 1746 368 q 1586 120 1689 218 q 1284 -1 1459 -1 q 1000 94 1120 -1 q 926 170 959 126 q 648 12 812 47 q 535 0 594 0 q 419 14 476 0 q 309 55 362 28 q 123 204 204 108 l 216 279 q 361 161 279 205 q 536 118 443 118 q 800 213 685 118 q 864 279 836 243 q 821 532 821 386 q 855 796 821 678 q 627 935 768 902 q 525 945 582 945 q 415 937 469 945 q 323 910 361 928 q 243 795 243 871 q 276 699 243 747 q 307 659 290 679 q 338 613 324 638 q 372 483 372 555 q 320 357 372 409 q 194 305 268 305 q 68 358 119 305 q 16 484 16 411 l 132 484 q 149 441 132 458 q 193 423 167 423 q 236 441 218 423 q 254 487 254 458 q 245 538 254 515 q 221 583 235 562 q 190 625 206 604 q 159 670 174 646 q 125 793 125 726 q 154 910 125 860 q 237 995 183 961 q 534 1063 345 1063 q 904 916 749 1063 q 1001 1026 947 990 q 1112 1063 1055 1063 q 1232 1011 1191 1063 l 1301 1097 q 1399 909 1344 959 q 1441 891 1419 891 q 1479 902 1463 891 q 1507 933 1495 913 q 1531 1042 1531 975 l 1649 1042 q 1594 849 1648 922 q 1435 772 1537 772 q 1266 865 1333 772 l 1217 805 q 1197 762 1197 779 q 1205 731 1197 744 q 1227 708 1213 719 q 1259 686 1241 697 l 1331 645 q 1367 623 1349 635 q 1415 696 1391 675 q 1514 733 1459 733 q 1611 694 1565 733 l 1611 767 l 1726 767 q 1713 640 1726 673 q 1680 589 1701 606 q 1630 572 1659 572 q 1588 578 1600 572 q 1565 593 1575 585 l 1548 608 q 1527 615 1540 615 q 1504 608 1514 615 q 1485 589 1493 601 q 1459 532 1472 571 z "},"":{"ha":750,"x_min":66,"x_max":725,"o":"m 527 -20 q 347 130 384 22 l 146 -21 l 66 19 l 66 540 q 150 720 66 657 l 302 835 q 422 718 387 780 l 588 834 l 725 574 l 450 367 l 450 210 q 505 110 450 140 l 642 217 l 710 122 l 527 -20 m 218 627 q 182 540 182 597 l 182 149 l 298 233 q 334 307 334 259 l 334 621 q 302 692 334 660 l 218 627 m 509 638 q 450 511 451 595 l 580 607 q 548 666 555 652 l 509 638 z "},"":{"ha":549,"x_min":34,"x_max":515,"o":"m 34 980 l 279 1151 l 515 980 l 445 888 l 279 1010 q 229 974 259 994 l 104 888 l 34 980 z "},"":{"ha":359,"x_min":34,"x_max":326,"o":"m 34 1016 q 76 1119 34 1076 q 179 1162 117 1161 q 283 1119 241 1161 q 326 1016 326 1076 q 283 913 326 956 q 179 870 241 871 q 76 913 117 871 q 34 1016 34 956 m 181 1063 q 171 1063 181 1063 q 148 1049 161 1063 q 134 1016 134 1035 q 148 983 134 996 q 181 970 161 970 q 214 983 200 970 q 228 1016 228 996 q 214 1049 228 1035 q 181 1063 200 1063 z "},"":{"ha":623,"x_min":34,"x_max":589,"o":"m 243 994 q 135 898 184 994 l 34 955 q 172 1098 92 1063 q 227 1109 199 1109 q 276 1096 254 1109 q 317 1066 298 1082 l 353 1036 q 385 1023 370 1023 q 414 1031 401 1023 q 441 1054 428 1040 q 488 1122 466 1081 l 589 1066 q 452 920 532 963 q 400 907 426 907 q 351 920 374 907 q 309 950 328 934 l 274 980 q 243 994 258 994 z "},"":{"ha":703,"x_min":95,"x_max":636,"o":"m 636 448 l 636 340 l 95 340 l 95 448 l 636 448 z "},"":{"ha":968,"x_min":95,"x_max":901,"o":"m 901 448 l 901 340 l 95 340 l 95 448 l 901 448 z "},"":{"ha":258,"x_min":39,"x_max":210,"o":"m 210 1043 q 143 892 143 937 q 156 859 143 873 q 199 844 170 844 l 199 733 q 49 822 79 734 q 39 887 39 849 q 119 1095 39 969 l 210 1043 z "},"":{"ha":250,"x_min":41,"x_max":212,"o":"m 41 777 q 108 928 108 883 q 95 962 108 947 q 52 976 81 976 l 52 1087 q 202 998 172 1086 q 212 933 212 971 q 132 726 212 851 l 41 777 z "},"":{"ha":268,"x_min":54,"x_max":225,"o":"m 54 -135 q 121 16 121 -29 q 108 50 121 35 q 66 64 95 64 l 66 175 q 216 87 185 175 q 225 21 225 60 q 145 -186 225 -61 l 54 -135 z "},"":{"ha":466,"x_min":39,"x_max":418,"o":"m 418 1043 q 351 892 351 937 q 365 859 351 873 q 407 844 378 844 l 407 733 q 257 822 288 734 q 248 887 248 849 q 328 1095 248 969 l 418 1043 m 210 1043 q 143 892 143 937 q 156 859 143 873 q 199 844 170 844 l 199 733 q 49 822 79 734 q 39 887 39 849 q 119 1095 39 969 l 210 1043 z "},"":{"ha":458,"x_min":41,"x_max":420,"o":"m 249 777 q 316 928 316 883 q 303 962 316 947 q 260 976 290 976 l 260 1087 q 410 998 380 1086 q 420 933 420 971 q 340 726 420 851 l 249 777 m 41 777 q 108 928 108 883 q 95 962 108 947 q 52 976 81 976 l 52 1087 q 202 998 172 1086 q 212 933 212 971 q 132 726 212 851 l 41 777 z "},"":{"ha":477,"x_min":54,"x_max":433,"o":"m 262 -135 q 330 16 330 -29 q 316 50 330 35 q 274 64 303 64 l 274 175 q 424 87 393 175 q 433 21 433 60 q 353 -186 433 -61 l 262 -135 m 54 -135 q 121 16 121 -29 q 108 50 121 35 q 66 64 95 64 l 66 175 q 216 87 185 175 q 225 21 225 60 q 145 -186 225 -61 l 54 -135 z "},"":{"ha":502,"x_min":-6,"x_max":508,"o":"m 251 764 q 336 587 286 641 q 508 487 387 532 q 336 388 388 442 q 251 211 286 334 q 165 388 216 334 q -6 487 114 443 q 165 587 114 532 q 251 764 216 641 z "},"":{"ha":361,"x_min":28,"x_max":313,"o":"m 206 38 l 28 349 l 213 662 l 313 604 l 162 349 q 308 94 162 349 l 206 38 z "},"":{"ha":361,"x_min":47,"x_max":333,"o":"m 54 95 l 199 349 l 47 604 l 148 662 l 333 349 l 155 39 l 54 95 z "},"":{"ha":544,"x_min":24,"x_max":514,"o":"m 24 660 q 87 812 24 734 l 304 1071 q 437 885 437 1015 l 437 707 l 514 707 l 514 593 l 437 593 q 302 382 437 448 l 229 474 q 319 593 319 520 l 24 593 l 24 660 m 154 707 l 319 707 l 319 908 l 154 707 z "}}}
